<svg xmlns="http://www.w3.org/2000/svg" viewBox="0 0 48 48"><defs><style>.a{fill:url(#a);}.b{fill:none;}.c{fill:#fff;}</style><linearGradient id="a" x1="0.5" y1="0.016" x2="0.5" y2="0.981" gradientUnits="objectBoundingBox"><stop offset="0" stop-color="#e06718"/><stop offset="1" stop-color="#c61e1c"/></linearGradient></defs><g transform="translate(0 0)"><circle class="a" cx="20.625" cy="20.625" r="20.625" transform="translate(3.375 3.375)"/><rect class="b" width="48" height="48" transform="translate(0 0)"/><path class="c" d="M52.525,39.9a17.9,17.9,0,0,1-.949,2.443h-.311c-5.854,0-7.905-4.445-9.714-8.366-1.778-3.855-3.032-6.218-6.239-6.218s-4.461,2.363-6.239,6.218c-1.809,3.921-3.861,8.366-9.714,8.366h-.311A17.9,17.9,0,0,1,18.1,39.9h1.26c4.291,0,5.776-3.219,7.5-6.947,1.652-3.579,3.523-7.636,8.457-7.636s6.805,4.057,8.457,7.636c1.72,3.728,3.205,6.947,7.5,6.947ZM35.781,17h-.937v2.25h.938Zm0,4.125h-.937v2.25h.938Zm0,8.25h-.937v2.25h.938Zm0,4.125h-.937v2.25h.938Zm0,4.125h-.937v2.25h.938Zm0,4.125h-.937V44h.938Zm0,4.125h-.937v2.25h.938Zm0,4.125h-.937v2.25h.938Z" transform="translate(-11.312 -10.625)"/></g></svg>
