<svg xmlns="http://www.w3.org/2000/svg" viewBox="0 0 48 48"><defs><style>.cls-1{fill:none;}.cls-2{fill:#8596b0;}.cls-3{fill:#77879e;}.cls-4{fill:#64748c;}</style></defs><g id="Layer_1" data-name="Layer 1"><rect class="cls-1" x="0.022" y="0.022" width="48" height="48"/><path class="cls-2" d="M39.715,27.238l-.344-.27.068-.431a15.775,15.775,0,0,0,0-4.92l-.068-.432.344-.27,3.7-2.9a.3.3,0,0,0,.072-.38l0-.006,0-.005-4.158-7.188a.307.307,0,0,0-.264-.15.315.315,0,0,0-.106.018l-4.37,1.758-.405.163-.34-.275a15.534,15.534,0,0,0-4.217-2.436l-.408-.157-.061-.434-.655-4.656a.35.35,0,0,0-.308-.245H19.86a.334.334,0,0,0-.307.268L18.9,8.922l-.061.433-.409.157a15.58,15.58,0,0,0-4.245,2.457l-.34.276-.406-.163L9.1,10.334a.335.335,0,0,0-.108-.018.306.306,0,0,0-.265.149L4.568,17.653l0,.005,0,0a.3.3,0,0,0,.073.381l3.694,2.9.344.27-.068.431a15.787,15.787,0,0,0,0,4.922L8.678,27l-.345.27-3.7,2.9a.3.3,0,0,0-.074.381l0,.006,0,0,4.158,7.188a.3.3,0,0,0,.264.15.338.338,0,0,0,.109-.019l4.367-1.757.406-.163.339.275a15.586,15.586,0,0,0,4.6,2.569V33.254a10.544,10.544,0,0,1,.074-18.381,1.5,1.5,0,0,1,2.23,1.311V22.1l2.91,1.456L26.933,22.1V16.184a1.5,1.5,0,0,1,2.229-1.311,10.543,10.543,0,0,1,.075,18.381V38.8a15.547,15.547,0,0,0,4.619-2.588l.34-.276.406.163,4.346,1.748a.315.315,0,0,0,.106.018.306.306,0,0,0,.264-.149l4.158-7.188,0-.006,0,0a.3.3,0,0,0-.072-.381Z"/><path class="cls-2" d="M28.433,16.184a9.045,9.045,0,0,1-.7,16.153V44.094a.928.928,0,0,1-.929.928H21.237a.928.928,0,0,1-.929-.928V32.337a9.045,9.045,0,0,1-.7-16.153v6.41a.7.7,0,0,0,.385.623l3.714,1.857a.7.7,0,0,0,.623,0l3.714-1.857a.7.7,0,0,0,.385-.623v-6.41"/><path class="cls-3" d="M8.634,21.457l-.029.184a15.787,15.787,0,0,0,0,4.922L8.678,27l-.345.27-3.7,2.9a.3.3,0,0,0-.074.381l0,.006,0,0,4.158,7.188a.3.3,0,0,0,.264.15.338.338,0,0,0,.109-.019l4.367-1.757.406-.163.339.275a15.586,15.586,0,0,0,4.6,2.569V33.254a10.577,10.577,0,0,1-5.339-9.165c0-.278.034-.551.055-.826Z"/><path class="cls-3" d="M34.576,24.089a10.577,10.577,0,0,1-5.339,9.165V38.8a15.547,15.547,0,0,0,4.619-2.588l.34-.276.406.163,4.346,1.748a.315.315,0,0,0,.106.018.306.306,0,0,0,.264-.149l4.158-7.188,0-.006,0,0a.3.3,0,0,0-.072-.381l-3.695-2.9-.344-.27.068-.431a15.775,15.775,0,0,0,0-4.92l-.025-.159-4.89,1.805C34.542,23.538,34.576,23.811,34.576,24.089Z"/><path class="cls-4" d="M8.726,37.743a.3.3,0,0,0,.264.15.338.338,0,0,0,.109-.019l4.367-1.757.406-.163.339.275a15.586,15.586,0,0,0,4.6,2.569V33.254a10.577,10.577,0,0,1-3.3-2.972L6.364,33.659Z"/><path class="cls-4" d="M29.237,33.254V38.8a15.547,15.547,0,0,0,4.619-2.588l.34-.276.406.163,4.346,1.748a.315.315,0,0,0,.106.018.306.306,0,0,0,.264-.149l2.349-4.061-9.131-3.371A10.577,10.577,0,0,1,29.237,33.254Z"/></g></svg>