<svg xmlns="http://www.w3.org/2000/svg" viewBox="0 0 48 48">
  <defs><style>.cls-1{fill:#f3ad0f;}.cls-2{fill:#f0930a;}.cls-3{fill:#ed7d07;}</style></defs>
  <g id="Layer_1" data-name="Layer 1">
    <path class="cls-1" d="M9.5,7h7A2.5,2.5,0,0,1,19,9.5V23H9.5A2.5,2.5,0,0,1,7,20.5V9.5A2.5,2.5,0,0,1,9.5,7Zm14,0h15A2.5,2.5,0,0,1,41,9.5v11A2.5,2.5,0,0,1,38.5,23H21V9.5A2.5,2.5,0,0,1,23.5,7Z"/><path class="cls-2" d="M9.5,41h15A2.5,2.5,0,0,0,27,38.5V25H9.5A2.5,2.5,0,0,0,7,27.5v11A2.5,2.5,0,0,0,9.5,41Z"/><path class="cls-2" d="M9.5,23H19V16.225l-12-2.7V20.5A2.5,2.5,0,0,0,9.5,23Z"/><path class="cls-2" d="M38.5,25H29V38.5A2.5,2.5,0,0,0,31.5,41h7A2.5,2.5,0,0,0,41,38.5v-11A2.5,2.5,0,0,0,38.5,25Z"/><path class="cls-2" d="M21,23H38.5a2.494,2.494,0,0,0,2.4-1.847L21,16.675Z"/><path class="cls-3" d="M9.5,41h15A2.5,2.5,0,0,0,27,38.5V32.675l-20,4.5V38.5A2.5,2.5,0,0,0,9.5,41Z"/><path class="cls-3" d="M31.5,41h7A2.5,2.5,0,0,0,41,38.5V29.526l-12,2.7V38.5A2.5,2.5,0,0,0,31.5,41Z"/>
  </g>
</svg>
