<svg xmlns="http://www.w3.org/2000/svg" viewBox="0 0 48 48"><defs><style>.cls-1{fill:#9c7bcb;}.cls-2{fill:none;}.cls-3{fill:#8c6eb6;}.cls-4{fill:#785e9b;}</style></defs><g id="Layer_1" data-name="Layer 1"><path class="cls-1" d="M4.5,24a19.5,19.5,0,1,1,38.326,5H37.5V24.492A1.492,1.492,0,0,0,36.008,23H29V18.492A1.492,1.492,0,0,0,27.508,17H20.492A1.492,1.492,0,0,0,19,18.492V23H11.992A1.492,1.492,0,0,0,10.5,24.492V29H5.174A19.415,19.415,0,0,1,4.5,24Z"/><rect class="cls-2" width="48" height="48"/><path class="cls-1" d="M5.638,30.5H10.5v7.539A19.526,19.526,0,0,1,5.638,30.5ZM12,39.338V30.492c0-.022-.005-.042-.006-.063l0-5.929H19V42.826A19.42,19.42,0,0,1,12,39.338Zm8.5,3.83V24.492c0-.022,0-.042-.006-.063l0-5.929H27.5l0,5.976,0,.016V43.168a18.615,18.615,0,0,1-7,0Zm8.5-.342V24.5h7l0,5.976,0,.016v8.846A19.42,19.42,0,0,1,29,42.826Zm8.5-4.787V30.5h4.862A19.526,19.526,0,0,1,37.5,38.039Z"/><path class="cls-3" d="M29,18.492V23h7.008A1.492,1.492,0,0,1,37.5,24.492V29h5.326A19.324,19.324,0,0,0,35.333,8.163L24,12.171,12.667,8.163A19.324,19.324,0,0,0,5.174,29H10.5V24.492A1.492,1.492,0,0,1,11.992,23H19V18.492A1.492,1.492,0,0,1,20.492,17h7.016A1.492,1.492,0,0,1,29,18.492Z"/><path class="cls-4" d="M29,18.492V23h7.008A1.492,1.492,0,0,1,37.5,24.492V29h5.326a18.939,18.939,0,0,0-.048-10.187L24,12.171,5.222,18.813A18.939,18.939,0,0,0,5.174,29H10.5V24.492A1.492,1.492,0,0,1,11.992,23H19V18.492A1.492,1.492,0,0,1,20.492,17h7.016A1.492,1.492,0,0,1,29,18.492Z"/></g></svg>