<svg xmlns="http://www.w3.org/2000/svg" viewBox="0 0 48 48"><defs><style>.cls-1{fill:none;}.cls-2{fill:#7dc8f0;}.cls-3{fill:#67b7eb;}.cls-4{fill:#55a4e1;}</style></defs><g id="Layer_1" data-name="Layer 1"><rect class="cls-1" width="48" height="48"/><path class="cls-2" d="M41,35a9,9,0,0,1-9,9H16a13,13,0,0,1-.04-26H16a12.987,12.987,0,0,1,11.726,7.424,10.544,10.544,0,0,0-4.187,3.381l1.2.882A8.978,8.978,0,0,1,32,26h0A9,9,0,0,1,41,35Z"/><path class="cls-2" d="M38.951,20.029a9.95,9.95,0,0,0-2.227-5.38l4.63-4.63L39.981,8.646l-4.63,4.63a9.958,9.958,0,0,0-5.38-2.227V4.5H28.029v6.549a9.958,9.958,0,0,0-5.38,2.227l-4.63-4.63-1.373,1.373,4.63,4.63a9.988,9.988,0,0,0-1.442,2.36,14.356,14.356,0,0,1,9.313,7.9,10.365,10.365,0,0,1,8.425,1.213,9.909,9.909,0,0,0,1.379-4.146H45.5V20.029Z"/><path class="cls-3" d="M32,26h0a8.966,8.966,0,0,0-7.145,3.556c-.435-.255-.867-.514-1.313-.751A37.784,37.784,0,0,0,5.711,24.359c-.3,0-.589.015-.885.022A12.98,12.98,0,0,0,16,44H32a9,9,0,0,0,0-18Z"/><path class="cls-4" d="M32,44a8.966,8.966,0,0,0,5.726-2.056A38.146,38.146,0,0,0,23.542,28.805,29.207,29.207,0,0,0,18.354,44Z"/></g></svg>