<svg xmlns="http://www.w3.org/2000/svg" viewBox="0 0 48 48"><defs><style>.cls-1{fill:none;}.cls-2{fill:#64bebe;}.cls-3{fill:#4fadad;}.cls-4{fill:#3c9999;}</style></defs><g id="Layer_1" data-name="Layer 1"><rect class="cls-1" width="48" height="48"/><path class="cls-2" d="M24,4.5A19.489,19.489,0,0,0,6.982,33.507H41.018A19.489,19.489,0,0,0,24,4.5Zm0,2.42a1.25,1.25,0,1,1-1.25,1.25A1.25,1.25,0,0,1,24,6.92ZM8.17,25.25A1.25,1.25,0,1,1,9.42,24,1.25,1.25,0,0,1,8.17,25.25Zm2.121-7.915a1.25,1.25,0,1,1,1.25-1.25A1.25,1.25,0,0,1,10.291,17.335Zm5.794-5.794a1.25,1.25,0,1,1,1.25-1.25A1.25,1.25,0,0,1,16.085,11.541ZM31.823,16.93l-3.68,8.834a4.5,4.5,0,1,1-5.89-5.889l8.834-3.681A.563.563,0,0,1,31.823,16.93Zm.092-5.389a1.25,1.25,0,1,1,1.25-1.25A1.25,1.25,0,0,1,31.915,11.541Zm4.544,4.544a1.25,1.25,0,1,1,1.25,1.25A1.25,1.25,0,0,1,36.459,16.085ZM39.83,25.25A1.25,1.25,0,1,1,41.08,24,1.25,1.25,0,0,1,39.83,25.25ZM7.908,35.007H40.092a19.492,19.492,0,0,1-32.184,0Z"/><path class="cls-3" d="M40.092,35.007H7.908a19.492,19.492,0,0,0,32.184,0Z"/><path class="cls-3" d="M38.959,16.085a1.25,1.25,0,0,1-1.25,1.25A1.232,1.232,0,0,1,36.5,16.3a29.154,29.154,0,0,0-5.173,1.814l-3.187,7.65a4.5,4.5,0,1,1-8.1-3.9,4.831,4.831,0,0,1,.339-.5A29.218,29.218,0,0,0,8.893,19.019a29.628,29.628,0,0,0-3.791.252,19.261,19.261,0,0,0,1.88,14.236H41.018a19.388,19.388,0,0,0,.519-17.992q-1.333.093-2.632.3A1.22,1.22,0,0,1,38.959,16.085ZM8.17,25.25A1.25,1.25,0,1,1,9.42,24,1.25,1.25,0,0,1,8.17,25.25ZM41.08,24a1.25,1.25,0,1,1-1.25-1.25A1.25,1.25,0,0,1,41.08,24Z"/><path class="cls-4" d="M14.476,41.008a19.446,19.446,0,0,0,22.181-2.191,29.087,29.087,0,0,0-1.631-3.81H15.905A29.13,29.13,0,0,0,14.476,41.008Z"/><path class="cls-4" d="M27.971,26.085a4.411,4.411,0,0,1-.793,1.123,4.489,4.489,0,0,1-6.739-.463,29.348,29.348,0,0,0-3.956,6.762H34.205A29.48,29.48,0,0,0,27.971,26.085Z"/></g></svg>
