<svg xmlns="http://www.w3.org/2000/svg" viewBox="0 0 48 48"><defs><style>.cls-1{fill:none;}.cls-2{fill:#3f90cf;}.cls-3{fill:#3981ba;}.cls-4{fill:#3374a7;}</style></defs><g id="Layer_1" data-name="Layer 1"><rect class="cls-1" width="48" height="48"/><path class="cls-2" d="M42.43,43H5.57a1,1,0,0,1-.906-1.423L10.6,28.866A1.5,1.5,0,0,1,11.955,28H17.8l4.087,6.464a2.5,2.5,0,0,0,4.226,0L30.2,28h5.845a1.5,1.5,0,0,1,1.359.866l5.932,12.711A1,1,0,0,1,42.43,43Z"/><path class="cls-2" d="M27.5,15.5A3.5,3.5,0,1,0,24,19,3.5,3.5,0,0,0,27.5,15.5ZM24.845,33.663a1,1,0,0,1-1.69,0l-8.61-13.619A10.44,10.44,0,0,1,13.5,15.5,10.568,10.568,0,0,1,28.419,5.9,9.461,9.461,0,0,1,33.3,10.492a10.718,10.718,0,0,1,.158,9.552Z"/><path class="cls-3" d="M36.045,28H30.2l-4.087,6.464a2.5,2.5,0,0,1-4.226,0L17.8,28H11.955a1.5,1.5,0,0,0-1.359.866L4.664,41.577,24,36.858l19.336,4.719L37.4,28.866A1.5,1.5,0,0,0,36.045,28Z"/><path class="cls-4" d="M30.2,28l-4.087,6.464a2.5,2.5,0,0,1-4.226,0L17.8,28H11.955a1.5,1.5,0,0,0-1.359.866L8.618,33.1,24,36.858,39.382,33.1,37.4,28.866A1.5,1.5,0,0,0,36.045,28Z"/></g></svg>