<svg xmlns="http://www.w3.org/2000/svg" width="30" height="30" viewBox="0 0 30 30"><defs><style>.a{fill:#6f7c91;}.b{fill:none;}</style></defs><path class="a" d="M-150.339,19.736a4.374,4.374,0,0,1,0-6.187l7.888-7.888a4.375,4.375,0,0,1,6.188,0l7.887,7.888a4.374,4.374,0,0,1,0,6.187l-7.888,7.888a4.375,4.375,0,0,1-6.187,0Zm17.784-3.646a.782.782,0,0,0-1.105,0l-4.916,4.916V10.392a.782.782,0,0,0-.781-.781.782.782,0,0,0-.781.781V21.006l-4.916-4.916a.782.782,0,0,0-1.105,0,.782.782,0,0,0,0,1.105l6.25,6.25a.779.779,0,0,0,.552.229.779.779,0,0,0,.553-.229l6.25-6.25A.782.782,0,0,0-132.555,16.09Z" transform="translate(154.358 -1.642)"/><rect class="b" width="30" height="30"/></svg>