<svg xmlns="http://www.w3.org/2000/svg" width="30" height="30" viewBox="0 0 30 30"><defs><style>.a{fill:none;}.b{fill:#6f7c91;}</style></defs><rect class="a" width="30" height="30"/><path class="b" d="M-52.25,24.125V28.5H-68.812A2.187,2.187,0,0,1-71,26.313a2.187,2.187,0,0,1,2.188-2.187H-52.25M-68.812,6A2.187,2.187,0,0,0-71,8.188V23.663a3.423,3.423,0,0,1,2.188-.788H-52.25V6Zm11.658,10.119a4.112,4.112,0,0,1-4.362.934l-3.4,3.4L-67.3,18.066l3.4-3.4a4.115,4.115,0,0,1,.934-4.363,4.1,4.1,0,0,1,4.029-1.047l-2.2,2.2.658,1.974a.321.321,0,0,0,.077.124.31.31,0,0,0,.123.076l1.974.658,2.2-2.2A4.1,4.1,0,0,1-57.155,16.119Z" transform="translate(76.625 -2.25)"/></svg>