<svg xmlns="http://www.w3.org/2000/svg" width="30" height="30" viewBox="0 0 30 30"><defs><style>.a{fill:none;}.b{fill:#6f7c91;}</style></defs><path class="a" d="M583.536,614.652h30v30h-30Z" transform="translate(-583.536 -614.652)"/><path class="b" d="M608.036,628.652a2.507,2.507,0,0,1,2.5-2.5v-5a2.507,2.507,0,0,0-2.5-2.5h-20a2.5,2.5,0,0,0-2.488,2.5v5a2.5,2.5,0,0,1-.012,5v5a2.507,2.507,0,0,0,2.5,2.5h20a2.507,2.507,0,0,0,2.5-2.5v-5A2.507,2.507,0,0,1,608.036,628.652Zm-5.525,6-4.475-2.875-4.475,2.875,1.35-5.15L590.8,626.14l5.3-.312,1.938-4.925,1.925,4.937,5.3.313-4.113,3.363Z" transform="translate(-583.036 -613.652)"/></svg>