<svg xmlns="http://www.w3.org/2000/svg" width="92" height="92" viewBox="0 0 92 92">
  <defs>
    <style>
      .a {
        fill: #cfd4da;
      }

      .b {
        fill: #fcb813;
      }
    </style>
  </defs>
  <title>icn_location</title>
  <g>
    <path class="a" d="M32.007,77.951H61.246l.263,2H31.744Zm.527-4-.263,2H60.982l-.263-2Zm52.578,6.131L78.9,60.775A3.987,3.987,0,0,0,75.1,58H59.109l-1.385,2H75.1A2,2,0,0,1,77,61.388l6.209,19.306A1,1,0,0,1,82.255,82H11a1,1,0,0,1-.952-1.306l6.209-19.306A2,2,0,0,1,18.16,60H35.53l-1.385-2H18.16a3.988,3.988,0,0,0-3.808,2.775L8.143,80.082A3,3,0,0,0,11,84H82.255a3,3,0,0,0,2.857-3.918ZM32.8,71.951H43.941a3.983,3.983,0,0,1-.6-.674l-.918-1.326h-9.36Zm23.576-10-1.385,2H59.4l-.263-2Zm-22.522,2h4.414l-1.385-2H34.115Zm19.752,2-1.385,2h7.71l-.263-2Zm-20.016,0-.263,2h7.711l-1.385-2Zm17.246,4-.918,1.326a4.032,4.032,0,0,1-.6.674H60.456l-.264-2Z"/>
    <path class="b" d="M60.062,23.515a19,19,0,0,0-26.87,0C26.6,30.11,25.756,43,31.428,50.564l.023.031.021.031L44.983,70.138a2,2,0,0,0,3.288,0L61.782,50.626,61.8,50.6l.023-.031C67.5,43,66.657,30.11,60.062,23.515ZM46.627,45a8,8,0,1,1,8-8A8,8,0,0,1,46.627,45Z"/>
  </g>
</svg>
