<?xml version="1.0" encoding="utf-8"?>
<!-- Generator: Adobe Illustrator 22.1.0, SVG Export Plug-In . SVG Version: 6.00 Build 0)  -->
<svg version="1.1" id="Vrstva_1" xmlns="http://www.w3.org/2000/svg" xmlns:xlink="http://www.w3.org/1999/xlink" x="0px" y="0px"
	 width="14" height="24" viewBox="0 0 14 24" style="enable-background:new 0 0 14 24;" xml:space="preserve">
<path d="M1.432,0.09c0-0.053,0.035-0.088,0.088-0.088h1.138c1.041,0,1.491,0.45,1.491,1.544c0,0.75-0.256,1.121-0.697,1.315v0.018
	c0.45,0.141,0.759,0.547,0.759,1.403c0,1.288-0.52,1.721-1.641,1.721H1.52c-0.053,0-0.088-0.035-0.088-0.088V0.09z M2.623,2.596
	c0.565,0,0.803-0.212,0.803-0.962c0-0.768-0.212-0.971-0.821-0.971H2.2c-0.035,0-0.053,0.018-0.053,0.053v1.827
	c0,0.035,0.018,0.053,0.053,0.053H2.623z M2.2,5.34h0.397c0.653,0,0.891-0.238,0.891-1.068c0-0.803-0.256-1.05-0.865-1.05H2.2
	c-0.035,0-0.053,0.018-0.053,0.053v2.012C2.147,5.322,2.165,5.34,2.2,5.34z M4.995,0.09c0-0.053,0.035-0.088,0.088-0.088h2.268
	c0.053,0,0.088,0.035,0.088,0.088v0.485c0,0.053-0.035,0.088-0.088,0.088H5.763c-0.035,0-0.053,0.018-0.053,0.053v1.871
	c0,0.035,0.018,0.053,0.053,0.053h1.377c0.053,0,0.088,0.035,0.088,0.088v0.485c0,0.053-0.035,0.088-0.088,0.088H5.763
	c-0.035,0-0.053,0.018-0.053,0.053v1.932c0,0.036,0.018,0.053,0.053,0.053h1.588c0.053,0,0.088,0.035,0.088,0.088v0.485
	c0,0.053-0.035,0.088-0.088,0.088H5.083c-0.053,0-0.088-0.035-0.088-0.088V0.09z M9.087,6.002c-0.053,0-0.088-0.035-0.088-0.088
	V0.716c0-0.035-0.018-0.053-0.053-0.053H7.958c-0.053,0-0.088-0.035-0.088-0.088V0.09c0-0.053,0.035-0.088,0.088-0.088h2.797
	c0.053,0,0.088,0.035,0.088,0.088v0.485c0,0.053-0.035,0.088-0.088,0.088H9.766c-0.035,0-0.053,0.018-0.053,0.053v5.197
	c0,0.053-0.035,0.088-0.088,0.088H9.087z M11.98,0.09c0.018-0.053,0.044-0.088,0.097-0.088h0.529c0.053,0,0.088,0.035,0.097,0.088
	l1.262,5.824c0.009,0.053-0.026,0.088-0.079,0.088h-0.529c-0.062,0-0.088-0.035-0.097-0.088l-0.265-1.315h-1.332l-0.265,1.315
	c-0.009,0.053-0.035,0.088-0.088,0.088H10.78c-0.053,0-0.088-0.035-0.08-0.088L11.98,0.09z M12.871,3.981l-0.512-2.612h-0.026
	l-0.547,2.612H12.871z"/>
</svg>
