<?xml version="1.0" encoding="utf-8"?>
<!-- Generator: Adobe Illustrator 22.1.0, SVG Export Plug-In . SVG Version: 6.00 Build 0)  -->
<svg version="1.1" id="Vrstva_1" xmlns="http://www.w3.org/2000/svg" xmlns:xlink="http://www.w3.org/1999/xlink" x="0px" y="0px"
	 width="18" height="24" viewBox="0 0 18 24" style="enable-background:new 0 0 18 24;" xml:space="preserve">
<g>
	<path d="M2.438,0.085c0.018-0.053,0.044-0.088,0.097-0.088h0.529c0.053,0,0.088,0.035,0.097,0.088l1.262,5.824
		c0.009,0.053-0.026,0.088-0.079,0.088H3.814c-0.062,0-0.088-0.035-0.097-0.088L3.453,4.594H2.12L1.856,5.909
		C1.847,5.962,1.82,5.997,1.767,5.997H1.238c-0.053,0-0.088-0.035-0.08-0.088L2.438,0.085z M3.329,3.977L2.817,1.365H2.791
		L2.244,3.977H3.329z"/>
	<path d="M5.021,0.085c0-0.053,0.035-0.088,0.088-0.088h0.538c0.053,0,0.088,0.035,0.088,0.088v5.197
		c0,0.036,0.018,0.053,0.053,0.053H7.36c0.053,0,0.088,0.035,0.088,0.088v0.485c0,0.053-0.035,0.088-0.088,0.088H5.11
		c-0.053,0-0.088-0.035-0.088-0.088V0.085z"/>
	<path d="M8.098,5.997c-0.053,0-0.088-0.035-0.088-0.088V0.085c0-0.053,0.035-0.088,0.088-0.088h0.987
		c1.059,0,1.623,0.476,1.623,1.8c0,1.297-0.574,1.8-1.623,1.8H8.777c-0.035,0-0.053,0.018-0.053,0.053v2.259
		c0,0.053-0.035,0.088-0.088,0.088H8.098z M9.994,1.797c0-0.847-0.256-1.138-0.909-1.138H8.777c-0.035,0-0.053,0.018-0.053,0.053
		v2.171c0,0.035,0.018,0.053,0.053,0.053h0.308C9.738,2.935,9.994,2.653,9.994,1.797z"/>
	<path d="M11.283,0.085c0-0.053,0.035-0.088,0.088-0.088h0.538c0.053,0,0.088,0.035,0.088,0.088v2.453
		c0,0.035,0.018,0.053,0.053,0.053h1.181c0.035,0,0.053-0.018,0.053-0.053V0.085c0-0.053,0.035-0.088,0.088-0.088h0.538
		c0.053,0,0.088,0.035,0.088,0.088v5.824c0,0.053-0.035,0.088-0.088,0.088h-0.538c-0.053,0-0.088-0.035-0.088-0.088V3.306
		c0-0.035-0.018-0.053-0.053-0.053h-1.181c-0.035,0-0.053,0.018-0.053,0.053v2.603c0,0.053-0.035,0.088-0.088,0.088h-0.538
		c-0.053,0-0.088-0.035-0.088-0.088V0.085z"/>
	<path d="M15.897,0.085c0.018-0.053,0.044-0.088,0.097-0.088h0.529c0.053,0,0.088,0.035,0.097,0.088l1.262,5.824
		c0.009,0.053-0.026,0.088-0.08,0.088h-0.529c-0.062,0-0.088-0.035-0.097-0.088l-0.265-1.315h-1.333l-0.264,1.315
		c-0.009,0.053-0.036,0.088-0.089,0.088h-0.529c-0.053,0-0.088-0.035-0.079-0.088L15.897,0.085z M16.788,3.977l-0.512-2.612h-0.026
		l-0.547,2.612H16.788z"/>
</g>
</svg>
