<?xml version="1.0" encoding="utf-8"?>
<!-- Generator: Adobe Illustrator 22.1.0, SVG Export Plug-In . SVG Version: 6.00 Build 0)  -->
<svg version="1.1" id="Layer_1" xmlns="http://www.w3.org/2000/svg" xmlns:xlink="http://www.w3.org/1999/xlink" x="0px" y="0px"
	 viewBox="0 -2 40 54" style="enable-background:new 0 0 40 54;" xml:space="preserve">
<style type="text/css">
	.st0{fill:#CFD4DB;}
	.st1{fill:#F3F4F6;}
	.st2{fill:#FFFFFF;}
	.st3{fill:#A5ADB9;}
	.st4{fill:#DEE1E6;}
	.st5{fill:#F8F9FB;}
	.st6{fill:#A3AAB9;}
	.st7{fill:#EDEEF0;}
	.st8{fill:#C22127;}
	.st9{clip-path:url(#SVGID_2_);fill:#CFD4DB;}
	.st10{fill-rule:evenodd;clip-rule:evenodd;fill:#C72627;}
	.st11{fill-rule:evenodd;clip-rule:evenodd;fill:#FFFFFF;}
	.st12{fill-rule:evenodd;clip-rule:evenodd;fill:#C31E20;}
</style>
<g>
	<path class="st2" d="M20,52c-0.836,0-1.616-0.418-2.08-1.113L3.934,29.908C1.36,26.441,0,22.326,0,18C0,6.972,8.972-2,20-2
		s20,8.972,20,20c0,4.326-1.36,8.441-3.934,11.908L22.08,50.887C21.616,51.582,20.836,52,20,52z"/>
</g>
<path class="st12" d="M20,0.5C10.342,0.5,2.5,8.341,2.5,18c0,3.923,1.294,7.547,3.478,10.466L20,49.5l14.022-21.034
	C36.206,25.547,37.5,21.923,37.5,18C37.5,8.341,29.659,0.5,20,0.5z M20,24.123c-3.38,0-6.125-2.745-6.125-6.125
	S16.62,11.873,20,11.873c3.38,0,6.125,2.745,6.125,6.125S23.38,24.123,20,24.123z"/>
</svg>