<?xml version="1.0" encoding="utf-8"?>
<!-- Generator: Adobe Illustrator 24.1.3, SVG Export Plug-In . SVG Version: 6.00 Build 0)  -->
<svg version="1.1" id="Layer_1" xmlns="http://www.w3.org/2000/svg" xmlns:xlink="http://www.w3.org/1999/xlink" x="0px" y="0px"
	 viewBox="0 0 4000 3795" style="enable-background:new 0 0 4000 3795;" xml:space="preserve">
<style type="text/css">
	.st0{fill:#C8120A;}
</style>
<g>
	<path class="st0" d="M3972.752,48.733c-28.036,85.777-142.38,149.183-201.132,215.28
		c-1087.465,979.444-1827.271,2328.264-2341.151,3437.693c-18.215,39.326-72.085,44.346-97.199,9.024
		C980.044,3213.914,607.064,2675.787,142.152,2286.593C21.692,2185.752-8.231,2012.667,72.298,1877.78
		c2.179-3.65,4.364-7.309,6.552-10.975c104.947-175.787,345.869-208.596,494.137-67.416
		c277.202,263.95,540.832,604.812,704.655,835.369c0.106,0.242,0.213,0.483,0.32,0.725c18.021,40.46,73.778,44.537,98.398,7.717
		c3.075-4.599,6.092-9.37,9.031-14.345C1950.584,1719.812,2665.399,839.61,3410.487,321.47
		C3576.388,202.46,3920.62,9.419,3972.752,48.733z"/>
</g>
</svg>
