<svg xmlns="http://www.w3.org/2000/svg">
  <defs>
    <svg width="36px" height="16px" viewBox="0 0 36 16" id="sgf-16demo"><path d="M8.492,6.272c0.299,0.372,0.449,0.92,0.449,1.643v0.376C8.935,8.987,8.781,9.523,8.478,9.897 c-0.303,0.374-0.741,0.562-1.313,0.562H6.456V5.713h0.723C7.755,5.713,8.193,5.899,8.492,6.272z M28.688,5.639 c-0.491,0-0.871,0.192-1.138,0.574c-0.267,0.383-0.402,0.943-0.405,1.682v0.347c0,0.726,0.133,1.289,0.4,1.689 c0.267,0.401,0.651,0.601,1.152,0.601c0.492,0,0.869-0.193,1.133-0.579c0.264-0.385,0.397-0.948,0.4-1.687V7.92 c0-0.746-0.133-1.312-0.4-1.7C29.563,5.833,29.182,5.639,28.688,5.639z M36,2v12c0,1.104-0.896,2-2,2H2c-1.104,0-2-0.896-2-2V2 c0-1.104,0.896-2,2-2h32C35.104,0,36,0.896,36,2z M10.426,7.92c0-0.661-0.138-1.251-0.415-1.77C9.734,5.63,9.349,5.23,8.856,4.948 C8.363,4.667,7.804,4.526,7.179,4.526H4.991v7.109h2.202c0.622-0.003,1.18-0.146,1.675-0.429c0.495-0.283,0.878-0.682,1.15-1.197 c0.272-0.514,0.408-1.101,0.408-1.762V7.92z M16.256,10.459h-3.301V8.554h2.813V7.407h-2.813V5.713h3.291V4.526H11.49v7.109h4.766 V10.459z M24.596,4.526h-1.924l-1.816,5.156l-1.826-5.156h-1.914v7.109h1.465V9.692l-0.147-3.35l1.914,5.293h1.006l1.919-5.297 l-0.146,3.354v1.943h1.47V4.526z M31.715,7.924c0-0.696-0.126-1.311-0.378-1.843c-0.252-0.532-0.609-0.941-1.069-1.225 c-0.461-0.285-0.987-0.428-1.58-0.428c-0.592,0-1.119,0.143-1.58,0.428c-0.461,0.284-0.817,0.693-1.069,1.225 c-0.252,0.532-0.378,1.148-0.378,1.848v0.352c0.003,0.684,0.132,1.288,0.386,1.814s0.612,0.93,1.074,1.213 c0.462,0.283,0.988,0.425,1.577,0.425c0.596,0,1.124-0.143,1.584-0.43c0.461-0.286,0.815-0.693,1.062-1.22 c0.247-0.528,0.371-1.141,0.371-1.841V7.924z"/></svg>
    <svg width="16px" height="16px" viewBox="0 0 16 16" id="sgf-16lock"><path d="M8.55,7h-3.1V6c0-0.855,0.695-1.55,1.55-1.55c0.855,0,1.55,0.695,1.55,1.55V7z M7,11.5c-0.55,0-1-0.45-1-1s0.45-1,1-1 c0.55,0,1,0.45,1,1S7.55,11.5,7,11.5z M10,7H9.5V6c0-1.38-1.12-2.5-2.5-2.5C5.62,3.5,4.5,4.62,4.5,6v1H4C3.45,7,3,7.45,3,8v5 c0,0.55,0.45,1,1,1h6c0.55,0,1-0.45,1-1V8C11,7.45,10.55,7,10,7z"/></svg>
    <svg width="16px" height="16px" viewBox="0 0 16 16" id="sgf-16reset"><path d="M15,2H1C0.448,2,0,2.448,0,3v10c0,0.552,0.448,1,1,1h14c0.552,0,1-0.448,1-1 V3C16,2.448,15.552,2,15,2z M11.5,10.513L10.513,11.5L8,8.987L5.487,11.5L4.5,10.513L7.013,8L4.5,5.487L5.487,4.5L8,7.013 L10.513,4.5L11.5,5.487L8.987,8L11.5,10.513z"/></svg>
    <svg width="16px" height="16px" viewBox="0 0 16 16" id="sgf-16shared"><path d="M10,9.5c-2.003,0-6,1.005-6,3V14h12v-1.5C16,10.505,12.003,9.5,10,9.5z M3.75,6.5V4.25h-1.5V6.5H0V8h2.25v2.25h1.5V8H6V6.5 H3.75z M10,8c1.658,0,3-1.342,3-3s-1.342-3-3-3S7,3.342,7,5S8.343,8,10,8z"/></svg>
    <svg width="16px" height="16px" viewBox="0 0 16 16" id="sgf-16shared-lock"><path d="M10,9.5c-2.003,0-6,1.005-6,3V14h12v-1.5C16,10.505,12.003,9.5,10,9.5z M3.75,6.5V4.25h-1.5V6.5H0V8h2.25v2.25h1.5V8H6V6.5 H3.75z M10,8c1.658,0,3-1.342,3-3s-1.342-3-3-3S7,3.342,7,5S8.343,8,10,8z M24.55,7h-3.1V6c0-0.855,0.695-1.55,1.55-1.55 c0.855,0,1.55,0.695,1.55,1.55V7z M23,11.5c-0.55,0-1-0.45-1-1s0.45-1,1-1c0.55,0,1,0.45,1,1S23.55,11.5,23,11.5z M26,7h-0.5V6 c0-1.38-1.12-2.5-2.5-2.5c-1.38,0-2.5,1.12-2.5,2.5v1H20c-0.55,0-1,0.45-1,1v5c0,0.55,0.45,1,1,1h6c0.55,0,1-0.45,1-1V8 C27,7.45,26.55,7,26,7z"/></svg>
    <svg width="16px" height="16px" viewBox="0 0 16 16" id="sgf-16shared-with-me"><path d="M10.75,9.5c-0.217,0-0.465,0.015-0.727,0.037C10.892,10.167,12,10.5,12,12.125V14h4v-1.875C16,10.377,12.498,9.5,10.75,9.5 z M5.25,9.5C3.503,9.5,0,10.377,0,12.125V14h10.5v-1.875C10.5,10.377,6.997,9.5,5.25,9.5z M5.25,8c1.245,0,2.243-1.005,2.243-2.25 S6.495,3.5,5.25,3.5S3,4.505,3,5.75S4.005,8,5.25,8z M10.75,8c1.245,0,2.243-1.005,2.243-2.25S11.995,3.5,10.75,3.5 S8.5,4.505,8.5,5.75S9.505,8,10.75,8z"/></svg>
    <svg width="28px" height="16px" viewBox="0 0 28 16" id="sgf-16shared-with-me-lock"><path d="M5.25,9.5C3.503,9.5,0,10.378,0,12.125V14h10.5v-1.875C10.5,10.378,6.997,9.5,5.25,9.5z M5.25,8 c1.245,0,2.243-1.005,2.243-2.25S6.495,3.5,5.25,3.5S3,4.505,3,5.75S4.005,8,5.25,8z M10.75,8c1.245,0,2.243-1.005,2.243-2.25 S11.995,3.5,10.75,3.5S8.5,4.505,8.5,5.75S9.505,8,10.75,8z M16,12.125V14h-4v-1.875c0-1.625-1.108-1.958-1.977-2.588 C10.285,9.515,10.533,9.5,10.75,9.5C12.498,9.5,16,10.377,16,12.125z M24.55,7h-3.1V6c0-0.855,0.695-1.55,1.55-1.55 c0.855,0,1.55,0.695,1.55,1.55V7z M23,11.5c-0.55,0-1-0.45-1-1s0.45-1,1-1c0.55,0,1,0.45,1,1S23.55,11.5,23,11.5z M26,7h-0.5V6 c0-1.38-1.12-2.5-2.5-2.5c-1.38,0-2.5,1.12-2.5,2.5v1H20c-0.55,0-1,0.45-1,1v5c0,0.55,0.45,1,1,1h6c0.55,0,1-0.45,1-1V8 C27,7.45,26.55,7,26,7z"/></svg>
    <svg width="36px" height="16px" viewBox="0 0 36 16" id="sgf-16trial"><path d="M34,0H2C0.896,0,0,0.896,0,2v12c0,1.104,0.896,2,2,2h32c1.104,0,2-0.896,2-2V2C36,0.896,35.104,0,34,0z M10.387,5.713 H8.209v5.922H6.744V5.713H4.596V4.526h5.791V5.713z M16.759,11.635h-1.572l-1.333-2.602h-1.167v2.602h-1.465V4.526h2.642 c0.84,0,1.488,0.187,1.943,0.562c0.456,0.374,0.684,0.903,0.684,1.586c0,0.486-0.105,0.89-0.315,1.214 c-0.21,0.324-0.528,0.582-0.955,0.774l1.538,2.905V11.635z M19.161,11.635h-1.465V4.526h1.465V11.635z M25.025,11.635l-0.493-1.464 h-2.568l-0.488,1.464h-1.558l2.646-7.109h1.357l2.661,7.109H25.025z M31.822,11.635h-4.575V4.526h1.465v5.933h3.11V11.635z  M23.243,6.323l0.894,2.661h-1.777L23.243,6.323z M14.74,6.001c0.19,0.192,0.286,0.455,0.286,0.791 c0,0.328-0.101,0.586-0.303,0.774c-0.202,0.187-0.487,0.28-0.854,0.28h-1.182V5.713h1.177C14.257,5.713,14.549,5.809,14.74,6.001z"/></svg>
    <svg width="24px" height="24px" viewBox="0 0 24 24" id="sgf-download-data"><path d="M14 2H6c-1.1 0-1.99.9-1.99 2L4 20c0 1.1.89 2 1.99 2H18c1.1 0 2-.9 2-2V8l-6-6zm2 16H8v-2h8v2zm0-4H8v-2h8v2zm-3-5V3.5L18.5 9H13z"/></svg>
    <svg width="24px" height="24px" viewBox="0 0 24 24" id="sgf-economy"><path d="M13.215,5h-2.292v1.68C9.44,7.007,8.249,7.987,8.249,9.488 c0,1.796,1.459,2.691,3.591,3.212c1.91,0.467,2.292,1.151,2.292,1.874c0,0.537-0.374,1.393-2.063,1.393 c-1.574,0-2.193-0.716-2.277-1.634H8.111c0.092,1.704,1.345,2.66,2.812,2.979V19h2.292v-1.672c1.49-0.288,2.674-1.167,2.674-2.761 c0-2.209-1.857-2.964-3.591-3.423c-1.734-0.458-2.292-0.933-2.292-1.672c0-0.848,0.772-1.439,2.063-1.439 c1.36,0,1.864,0.661,1.91,1.634h1.688c-0.053-1.338-0.856-2.567-2.452-2.964V5z M18,3c1.656,0,3,1.344,3,3v12c0,1.656-1.344,3-3,3 H6c-1.656,0-3-1.344-3-3V6c0-1.656,1.344-3,3-3H18z"/></svg>
    <svg width="24px" height="24px" viewBox="0 0 24 24" id="sgf-license"><path d="M6,4h5v8l-2.5-1.5L6,12V4z M18,2H6C4.9,2,4,2.9,4,4v16c0,1.1,0.9,2,2,2h12c1.1,0,2-0.9,2-2V4C20,2.9,19.1,2,18,2z"/></svg>
    <svg width="24px" height="24px" viewBox="0 0 24 24" id="sgf-map-all"><path d="M18.417,3.75H14.75v1.833h3.667V9.25h1.833V5.583C20.25,4.575,19.425,3.75,18.417,3.75z M18.417,18.417H14.75v1.833h3.667 c1.008,0,1.833-0.825,1.833-1.833V14.75h-1.833V18.417z M5.583,14.75H3.75v3.667c0,1.008,0.825,1.833,1.833,1.833H9.25v-1.833 H5.583V14.75z M3.75,5.583V9.25h1.833V5.583H9.25V3.75H5.583C4.575,3.75,3.75,4.575,3.75,5.583z M8,9.625c0.552,0,1,0.448,1,1 c0,0.552-0.448,1-1,1s-1-0.448-1-1C7,10.073,7.448,9.625,8,9.625z M12,7.625c0.552,0,1,0.448,1,1c0,0.552-0.448,1-1,1s-1-0.448-1-1 C11,8.073,11.448,7.625,12,7.625z M16,9.625c0.552,0,1,0.448,1,1c0,0.552-0.448,1-1,1c-0.552,0-1-0.448-1-1 C15,10.073,15.448,9.625,16,9.625z M15,13.625c0.552,0,1,0.448,1,1c0,0.552-0.448,1-1,1s-1-0.448-1-1 C14,14.073,14.448,13.625,15,13.625z M12,11.625c0.552,0,1,0.448,1,1c0,0.552-0.448,1-1,1s-1-0.448-1-1 C11,12.073,11.448,11.625,12,11.625z M10,14.625c0.552,0,1,0.448,1,1c0,0.552-0.448,1-1,1s-1-0.448-1-1 C9,15.073,9.448,14.625,10,14.625z"/></svg>
    <svg width="24px" height="24px" viewBox="0 0 24 24" id="sgf-map-full-screen"><path d="M18.417,3.75H14.75v1.833h3.667V9.25h1.833V5.583C20.25,4.575,19.425,3.75,18.417,3.75z M18.417,18.417H14.75v1.833h3.667 c1.008,0,1.833-0.825,1.833-1.833V14.75h-1.833V18.417z M5.583,14.75H3.75v3.667c0,1.008,0.825,1.833,1.833,1.833H9.25v-1.833 H5.583V14.75z M3.75,5.583V9.25h1.833V5.583H9.25V3.75H5.583C4.575,3.75,3.75,4.575,3.75,5.583z"/></svg>
    <svg width="24px" height="24px" viewBox="0 0 24 24" id="sgf-map-myloc"><path d="M12,18.417c-3.548,0-6.417-2.869-6.417-6.417S8.452,5.583,12,5.583S18.417,8.453,18.417,12S15.547,18.417,12,18.417z  M20.195,11.083c-0.422-3.822-3.456-6.857-7.278-7.278V1.917h-1.833v1.888c-3.822,0.422-6.857,3.456-7.278,7.278H1.917v1.833h1.888 c0.422,3.823,3.456,6.857,7.278,7.278v1.888h1.833v-1.888c3.823-0.422,6.857-3.456,7.278-7.278h1.888v-1.833H20.195z M12,8.333 c-2.026,0-3.667,1.641-3.667,3.667S9.974,15.667,12,15.667s3.667-1.641,3.667-3.667S14.026,8.333,12,8.333z"/></svg>
    <svg width="24px" height="24px" viewBox="0 0 24 24" id="sgf-map-selected"><path d="M18.417,3.75H14.75v1.833h3.667V9.25h1.833V5.583C20.25,4.575,19.425,3.75,18.417,3.75z M18.417,18.417H14.75v1.833h3.667 c1.008,0,1.833-0.825,1.833-1.833V14.75h-1.833V18.417z M5.583,14.75H3.75v3.667c0,1.008,0.825,1.833,1.833,1.833H9.25v-1.833 H5.583V14.75z M3.75,5.583V9.25h1.833V5.583H9.25V3.75H5.583C4.575,3.75,3.75,4.575,3.75,5.583z M9.24,7.761h2.75v2.75H9.24V7.761z  M13.824,10.511h2.75v2.75h-2.75V10.511z M8.324,13.261h2.75v2.75h-2.75V13.261z"/></svg>
    <svg width="24px" height="24px" viewBox="0 0 24 24" id="sgf-map-zoom-in"><path d="M18.417,12.917h-5.5v5.5h-1.833v-5.5h-5.5v-1.834h5.5v-5.5h1.833v5.5h5.5V12.917z"/></svg>
    <svg width="24px" height="24px" viewBox="0 0 24 24" id="sgf-map-zoom-out"><path d="M5.583,11.084h12.833v1.833H5.583V11.084z"/></svg>
    <svg width="24px" height="24px" viewBox="0 0 24 24" id="sgf-mn-tag"><path d="M6.583,7.833c-0.692,0-1.25-0.558-1.25-1.25c0-0.691,0.558-1.25,1.25-1.25c0.692,0,1.25,0.559,1.25,1.25 C7.833,7.275,7.275,7.833,6.583,7.833z M19.842,11.65l-7.5-7.5c-0.3-0.3-0.717-0.483-1.175-0.483H5.333 c-0.917,0-1.667,0.75-1.667,1.666v5.834c0,0.458,0.183,0.875,0.492,1.183l7.5,7.5c0.3,0.3,0.717,0.483,1.175,0.483 c0.458,0,0.875-0.183,1.175-0.491l5.833-5.834c0.308-0.3,0.492-0.716,0.492-1.175C20.333,12.375,20.142,11.95,19.842,11.65z"/></svg>
    <svg width="24px" height="24px" viewBox="0 0 24 24" id="sgf-mn-all"><path d="M19,3H4.99C3.88,3,3.01,3.89,3.01,5L3,19c0,1.1,0.88,2,1.99,2H19c1.1,0,2-0.9,2-2V5C21,3.89,20.1,3,19,3z M19,15h-4 c0,1.66-1.35,3-3,3s-3-1.34-3-3H4.99V5H19V15z"/></svg>
    <svg width="24px" height="24px" viewBox="0 0 24 24" id="sgf-overview"><path d="M13,11h8V3h-8V11z M13,21h8v-8h-8V21z M3,21h8v-8H3V21z M3,11h8V3H3V11z"/></svg>
    <svg width="24px" height="24px" viewBox="0 0 24 24" id="sgf-pv-configuration"><path d="M19.43,12.98c0.04-0.32,0.07-0.64,0.07-0.98s-0.03-0.66-0.07-0.98l2.11-1.65c0.19-0.15,0.24-0.42,0.12-0.64l-2-3.46 c-0.12-0.22-0.39-0.3-0.61-0.22l-2.49,1c-0.52-0.4-1.08-0.73-1.69-0.98l-0.38-2.65C14.46,2.18,14.25,2,14,2h-4 C9.75,2,9.54,2.18,9.51,2.42L9.13,5.07C8.52,5.32,7.96,5.66,7.44,6.05l-2.49-1c-0.23-0.09-0.49,0-0.61,0.22l-2,3.46 C2.21,8.95,2.27,9.22,2.46,9.37l2.11,1.65C4.53,11.34,4.5,11.67,4.5,12s0.03,0.66,0.07,0.98l-2.11,1.65 c-0.19,0.15-0.24,0.42-0.12,0.64l2,3.46c0.12,0.22,0.39,0.3,0.61,0.22l2.49-1c0.52,0.4,1.08,0.73,1.69,0.98l0.38,2.65 C9.54,21.82,9.75,22,10,22h4c0.25,0,0.46-0.18,0.49-0.42l0.38-2.65c0.61-0.25,1.17-0.59,1.69-0.98l2.49,1 c0.23,0.09,0.49,0,0.61-0.22l2-3.46c0.12-0.22,0.07-0.49-0.12-0.64L19.43,12.98z M12,15.5c-1.93,0-3.5-1.57-3.5-3.5 s1.57-3.5,3.5-3.5s3.5,1.57,3.5,3.5S13.93,15.5,12,15.5z"/></svg>
    <svg width="24px" height="24px" viewBox="0 0 24 24" id="sgf-pv-electricity"><path d="M15,18h2V9h-2V18z M7,18h2v-6H7V18z M11,18h2V6h-2V18z M18,21H6 c-1.656,0-3-1.344-3-3V6c0-1.656,1.344-3,3-3h12c1.656,0,3,1.344,3,3v12C21,19.656,19.656,21,18,21z"/></svg>
    <svg width="24px" height="24px" viewBox="0 0 24 24" id="sgf-pv-performance"><path d="M17.5,2.956h-12c-1.656,0-3,1.344-3,3v12c0,1.656,1.344,3,3,3h12 c1.656,0,3-1.344,3-3v-12C20.5,4.3,19.156,2.956,17.5,2.956z M15.5,13.956l-2.29-2.29l-5.545,5.538l-1.416-1.416l5.542-5.542 L9.5,7.956h6V13.956z"/></svg>
    <svg width="24px" height="24px" viewBox="0 0 24 24" id="sgf-reports"><path d="M5,20h14v-2H5V20z M19,9h-4V3H9v6H5l7,7L19,9z"/></svg>
    <svg width="24px" height="24px" viewBox="0 0 24 24" id="sgf-site-info"><path d="M14.19,14.19L6,18l3.81-8.19L18,6L14.19,14.19z M12,2C6.48,2,2,6.48,2,12s4.48,10,10,10s10-4.48,10-10S17.52,2,12,2z  M12,10.9c-0.61,0-1.1,0.49-1.1,1.1s0.49,1.1,1.1,1.1s1.1-0.49,1.1-1.1S12.61,10.9,12,10.9z"/></svg>
    <svg width="24px" height="24px" viewBox="0 0 24 24" id="sgf-solar-meteo"><path d="M18,3H6C4.344,3,3,4.344,3,6v12c0,1.656,1.344,3,3,3h12c1.656,0,3-1.344,3-3V6C21,4.344,19.656,3,18,3z M17.963,11.376 h-1.513c-0.111-0.744-0.404-1.429-0.833-2.008l1.069-1.069C17.377,9.162,17.835,10.22,17.963,11.376z M12.667,6.081 c1.156,0.128,2.214,0.585,3.077,1.275l-1.069,1.07c-0.579-0.429-1.264-0.722-2.008-0.833V6.081z M11.333,6.081v1.512 c-0.744,0.111-1.429,0.404-2.008,0.833l-1.069-1.07C9.119,6.666,10.177,6.209,11.333,6.081z M7.313,8.299l1.069,1.069 c-0.429,0.579-0.722,1.264-0.833,2.008H6.037C6.165,10.22,6.623,9.162,7.313,8.299z M6.036,12.709h1.513 c0.11,0.745,0.404,1.43,0.833,2.009l-1.069,1.07C6.622,14.924,6.164,13.866,6.036,12.709z M11.333,18.007 c-1.157-0.128-2.215-0.585-3.078-1.276l1.069-1.07c0.579,0.429,1.264,0.723,2.009,0.834V18.007z M9,12.044c0-1.66,1.34-3,3-3 c1.66,0,3,1.34,3,3c0,1.66-1.34,3-3,3C10.34,15.044,9,13.704,9,12.044z M12.667,18.007v-1.512c0.745-0.111,1.43-0.405,2.009-0.834 l1.069,1.07C14.882,17.422,13.823,17.879,12.667,18.007z M16.688,15.788l-1.069-1.07c0.429-0.579,0.722-1.264,0.833-2.009h1.512 C17.836,13.866,17.378,14.924,16.688,15.788z"/></svg>
    <svg width="20px" height="20px" viewBox="0 0 20 20" id="sgf-menu-show"><path id="Group_13218" transform="translate(-26 -62)" d="M27,67h9v2h-9V67z M27,71h9v2h-9V71z M27,75h9v2h-9V75z"/><path d="M15.41,5.42L14,6.84l3.17,3.17L14,13.18l1.41,1.41L20,10.01L15.41,5.42z"/></svg>
    <svg width="20px" height="20px" viewBox="0 0 20 20" id="sgf-menu-hide"><path id="Group_13218_1_" transform="translate(-17 -62)" d="M27,67h9v2h-9V67z M27,71h9v2h-9V71z M27,75h9v2h-9V75z"/><path id="Path_2757" d="M4.59,14.59L6,13.17L2.83,10L6,6.83L4.59,5.42L0,10L4.59,14.59z"/></svg>
    <svg width="24px" height="24px" viewBox="0 0 24 24" id="sgf-transfer"><path d="M12,2C6.48,2,2,6.48,2,12s4.48,10,10,10s10-4.48,10-10S17.52,2,12,2z M12,20c-4.41,0-8-3.59-8-8s3.59-8,8-8s8,3.59,8,8 S16.41,20,12,20z M12,16.862v-3.278c-2.78,0-4.61,0.85-6,2.72c0.56-2.67,2.11-5.33,6-5.87V7.151L17.2,12L12,16.862z"/></svg>
    <svg width="24px" height="24px" viewBox="0 0 24 24" id="sgf-gear"><path d="M13.128,3.5l0.257,1.783l0.12,0.84l0.791,0.326c0.48,0.199,0.931,0.461,1.342,0.78l0.68,0.527 l0.798-0.32l1.68-0.672l1.132,1.957l-1.42,1.111l-0.678,0.529l0.12,0.852c0.075,0.517,0.075,1.043,0,1.56l-0.12,0.851l0.676,0.53 l1.417,1.111l-1.13,1.966l-1.68-0.673l-0.792-0.318l-0.678,0.52c-0.418,0.319-0.875,0.584-1.36,0.788L13.5,17.878l-0.12,0.84   l-0.257,1.781h-2.251l-0.248-1.777l-0.12-0.851L9.71,17.543c-0.48-0.199-0.932-0.461-1.343-0.779l-0.68-0.528l-0.798,0.32 l-1.68,0.673l-1.135-1.96l1.418-1.109l0.678-0.529l-0.12-0.851c-0.075-0.517-0.075-1.043,0-1.56l0.12-0.852L5.494,9.841L4.073,8.73 l1.135-1.957l1.674,0.671l0.792,0.318l0.677-0.518c0.418-0.32,0.875-0.585,1.36-0.79l0.782-0.329l0.12-0.84L10.872,3.5H13.128    M14.006,2H9.992C9.75,2.001,9.545,2.18,9.512,2.42l-0.38,2.65c-0.603,0.253-1.171,0.583-1.69,0.98l-2.495-1 C4.892,5.03,4.833,5.019,4.774,5.018C4.596,5.017,4.432,5.114,4.348,5.27L2.341,8.73c-0.127,0.213-0.076,0.487,0.12,0.64   l2.108,1.649c-0.093,0.65-0.093,1.31,0,1.961L2.459,14.63c-0.191,0.155-0.241,0.426-0.12,0.64l2.006,3.461 c0.123,0.212,0.38,0.305,0.61,0.22l2.49-1c0.517,0.401,1.085,0.731,1.69,0.98l0.371,2.65c0.033,0.24,0.238,0.419,0.48,0.42h4.014   c0.242-0.001,0.447-0.18,0.48-0.42l0.38-2.65c0.603-0.254,1.17-0.583,1.69-0.98l2.49,1c0.058,0.023,0.119,0.035,0.181,0.035   c0.179,0,0.343-0.098,0.428-0.254l2-3.46c0.121-0.214,0.071-0.484-0.12-0.64l-2.105-1.651c0.093-0.65,0.093-1.31,0-1.961l2.11-1.65 c0.191-0.155,0.241-0.426,0.12-0.64L19.66,5.27c-0.09-0.155-0.256-0.25-0.436-0.251c-0.059,0-0.118,0.01-0.174,0.031l-2.49,1   c-0.517-0.401-1.085-0.731-1.69-0.98l-0.382-2.65c-0.033-0.24-0.238-0.419-0.48-0.42L14.006,2z M11.999,15 c-1.657-0.003-2.997-1.349-2.994-3.006S10.354,8.997,12.011,9c1.655,0.003,2.994,1.345,2.994,3c0,1.657-1.343,3-3,3 C12.003,15,12.001,15,11.999,15z"/></svg>
    <svg width="24px" height="24px" viewBox="0 0 24 24" id="sgf-compare"><path d="M12,2C6.48,2,2,6.48,2,12c0,5.52,4.48,10,10,10s10-4.48,10-10S17.52,2,12,2z M12,20c-4.41,0-8-3.59-8-8c0-4.41,3.59-8,8-8 c4.41,0,8,3.59,8,8S16.41,20,12,20z M18,11h-3.003v6H13V7L18,11z M6,13h3.003V7H11v10L6,13z"/></svg>
    <svg width="48px" height="48px" viewBox="0 0 48 48" id="sgf-prospect"><path class="cls-2" d="M42.43,43H5.57a1,1,0,0,1-.906-1.423L10.6,28.866A1.5,1.5,0,0,1,11.955,28H17.8l4.087,6.464a2.5,2.5,0,0,0,4.226,0L30.2,28h5.845a1.5,1.5,0,0,1,1.359.866l5.932,12.711A1,1,0,0,1,42.43,43Z"/><path class="cls-2" d="M27.5,15.5A3.5,3.5,0,1,0,24,19,3.5,3.5,0,0,0,27.5,15.5ZM24.845,33.663a1,1,0,0,1-1.69,0l-8.61-13.619A10.44,10.44,0,0,1,13.5,15.5,10.568,10.568,0,0,1,28.419,5.9,9.461,9.461,0,0,1,33.3,10.492a10.718,10.718,0,0,1,.158,9.552Z"/><path class="cls-3" d="M36.045,28H30.2l-4.087,6.464a2.5,2.5,0,0,1-4.226,0L17.8,28H11.955a1.5,1.5,0,0,0-1.359.866L4.664,41.577,24,36.858l19.336,4.719L37.4,28.866A1.5,1.5,0,0,0,36.045,28Z"/><path class="cls-4" d="M30.2,28l-4.087,6.464a2.5,2.5,0,0,1-4.226,0L17.8,28H11.955a1.5,1.5,0,0,0-1.359.866L8.618,33.1,24,36.858,39.382,33.1,37.4,28.866A1.5,1.5,0,0,0,36.045,28Z"/></svg>
    <svg width="48px" height="48px" viewBox="0 0 48 48" id="sgf-evaluate"><path class="cls-1" d="M4.5,24a19.5,19.5,0,1,1,38.326,5H37.5V24.492A1.492,1.492,0,0,0,36.008,23H29V18.492A1.492,1.492,0,0,0,27.508,17H20.492A1.492,1.492,0,0,0,19,18.492V23H11.992A1.492,1.492,0,0,0,10.5,24.492V29H5.174A19.415,19.415,0,0,1,4.5,24Z"/><rect class="cls-2" width="48" height="48"/><path class="cls-1" d="M5.638,30.5H10.5v7.539A19.526,19.526,0,0,1,5.638,30.5ZM12,39.338V30.492c0-.022-.005-.042-.006-.063l0-5.929H19V42.826A19.42,19.42,0,0,1,12,39.338Zm8.5,3.83V24.492c0-.022,0-.042-.006-.063l0-5.929H27.5l0,5.976,0,.016V43.168a18.615,18.615,0,0,1-7,0Zm8.5-.342V24.5h7l0,5.976,0,.016v8.846A19.42,19.42,0,0,1,29,42.826Zm8.5-4.787V30.5h4.862A19.526,19.526,0,0,1,37.5,38.039Z"/><path class="cls-3" d="M29,18.492V23h7.008A1.492,1.492,0,0,1,37.5,24.492V29h5.326A19.324,19.324,0,0,0,35.333,8.163L24,12.171,12.667,8.163A19.324,19.324,0,0,0,5.174,29H10.5V24.492A1.492,1.492,0,0,1,11.992,23H19V18.492A1.492,1.492,0,0,1,20.492,17h7.016A1.492,1.492,0,0,1,29,18.492Z"/><path class="cls-4" d="M29,18.492V23h7.008A1.492,1.492,0,0,1,37.5,24.492V29h5.326a18.939,18.939,0,0,0-.048-10.187L24,12.171,5.222,18.813A18.939,18.939,0,0,0,5.174,29H10.5V24.492A1.492,1.492,0,0,1,11.992,23H19V18.492A1.492,1.492,0,0,1,20.492,17h7.016A1.492,1.492,0,0,1,29,18.492Z"/></svg>
    <svg width="48px" height="48px" viewBox="0 0 48 48" id="sgf-monitor"><path class="cls-2" d="M24,4.5A19.489,19.489,0,0,0,6.982,33.507H41.018A19.489,19.489,0,0,0,24,4.5Zm0,2.42a1.25,1.25,0,1,1-1.25,1.25A1.25,1.25,0,0,1,24,6.92ZM8.17,25.25A1.25,1.25,0,1,1,9.42,24,1.25,1.25,0,0,1,8.17,25.25Zm2.121-7.915a1.25,1.25,0,1,1,1.25-1.25A1.25,1.25,0,0,1,10.291,17.335Zm5.794-5.794a1.25,1.25,0,1,1,1.25-1.25A1.25,1.25,0,0,1,16.085,11.541ZM31.823,16.93l-3.68,8.834a4.5,4.5,0,1,1-5.89-5.889l8.834-3.681A.563.563,0,0,1,31.823,16.93Zm.092-5.389a1.25,1.25,0,1,1,1.25-1.25A1.25,1.25,0,0,1,31.915,11.541Zm4.544,4.544a1.25,1.25,0,1,1,1.25,1.25A1.25,1.25,0,0,1,36.459,16.085ZM39.83,25.25A1.25,1.25,0,1,1,41.08,24,1.25,1.25,0,0,1,39.83,25.25ZM7.908,35.007H40.092a19.492,19.492,0,0,1-32.184,0Z"/><path class="cls-3" d="M40.092,35.007H7.908a19.492,19.492,0,0,0,32.184,0Z"/><path class="cls-3" d="M38.959,16.085a1.25,1.25,0,0,1-1.25,1.25A1.232,1.232,0,0,1,36.5,16.3a29.154,29.154,0,0,0-5.173,1.814l-3.187,7.65a4.5,4.5,0,1,1-8.1-3.9,4.831,4.831,0,0,1,.339-.5A29.218,29.218,0,0,0,8.893,19.019a29.628,29.628,0,0,0-3.791.252,19.261,19.261,0,0,0,1.88,14.236H41.018a19.388,19.388,0,0,0,.519-17.992q-1.333.093-2.632.3A1.22,1.22,0,0,1,38.959,16.085ZM8.17,25.25A1.25,1.25,0,1,1,9.42,24,1.25,1.25,0,0,1,8.17,25.25ZM41.08,24a1.25,1.25,0,1,1-1.25-1.25A1.25,1.25,0,0,1,41.08,24Z"/><path class="cls-4" d="M14.476,41.008a19.446,19.446,0,0,0,22.181-2.191,29.087,29.087,0,0,0-1.631-3.81H15.905A29.13,29.13,0,0,0,14.476,41.008Z"/><path class="cls-4" d="M27.971,26.085a4.411,4.411,0,0,1-.793,1.123,4.489,4.489,0,0,1-6.739-.463,29.348,29.348,0,0,0-3.956,6.762H34.205A29.48,29.48,0,0,0,27.971,26.085Z"/></svg>
    <svg width="48px" height="48px" viewBox="0 0 48 48" id="sgf-forecast"><path class="cls-2" d="M41,35a9,9,0,0,1-9,9H16a13,13,0,0,1-.04-26H16a12.987,12.987,0,0,1,11.726,7.424,10.544,10.544,0,0,0-4.187,3.381l1.2.882A8.978,8.978,0,0,1,32,26h0A9,9,0,0,1,41,35Z"/><path class="cls-2" d="M38.951,20.029a9.95,9.95,0,0,0-2.227-5.38l4.63-4.63L39.981,8.646l-4.63,4.63a9.958,9.958,0,0,0-5.38-2.227V4.5H28.029v6.549a9.958,9.958,0,0,0-5.38,2.227l-4.63-4.63-1.373,1.373,4.63,4.63a9.988,9.988,0,0,0-1.442,2.36,14.356,14.356,0,0,1,9.313,7.9,10.365,10.365,0,0,1,8.425,1.213,9.909,9.909,0,0,0,1.379-4.146H45.5V20.029Z"/><path class="cls-3" d="M32,26h0a8.966,8.966,0,0,0-7.145,3.556c-.435-.255-.867-.514-1.313-.751A37.784,37.784,0,0,0,5.711,24.359c-.3,0-.589.015-.885.022A12.98,12.98,0,0,0,16,44H32a9,9,0,0,0,0-18Z"/><path class="cls-4" d="M32,44a8.966,8.966,0,0,0,5.726-2.056A38.146,38.146,0,0,0,23.542,28.805,29.207,29.207,0,0,0,18.354,44Z"/></svg>
    <svg width="20px" height="20px" viewBox="0 0 20 20" id="sgf-map"><path id="Path_3256" data-name="Path 3256" class="cls-2" d="M9.991,16.412,3.44,11.3,2,12.427l8,6.24,8-6.24L16.551,11.3ZM10,14.147l6.542-5.108L18,7.907l-8-6.24L2,7.907,3.449,9.039ZM10,3.922l5.1,3.985L10,11.892,4.9,7.907Z"/></svg>
    <svg width="20px" height="20px" viewBox="0 0 20 20" id="sgf-project"><path class="cls-2" d="M18,11.5A2.5,2.5,0,0,1,15.5,14H4.5A2.5,2.5,0,0,1,2,11.5H3.417A1.087,1.087,0,0,0,4.5,12.583h11A1.087,1.087,0,0,0,16.583,11.5Zm-1.417,3A1.087,1.087,0,0,1,15.5,15.583H4.5A1.087,1.087,0,0,1,3.417,14.5H2A2.5,2.5,0,0,0,4.5,17h11A2.5,2.5,0,0,0,18,14.5ZM15.5,4.667H4.5a.834.834,0,0,0-.833.833v3a.834.834,0,0,0,.833.833h11a.834.834,0,0,0,.833-.833v-3a.834.834,0,0,0-.833-.833h0M18,5.5v3A2.5,2.5,0,0,1,15.5,11H4.5A2.5,2.5,0,0,1,2,8.5v-3A2.5,2.5,0,0,1,4.5,3h11A2.5,2.5,0,0,1,18,5.5Z"/></svg>
    <svg width="20px" height="20px" viewBox="0 0 20 20" id="sgf-compare2"><path id="Path_3261" data-name="Path 3261" class="cls-1" d="M16.333,7H8.666V5.583L5.833,7.833l2.833,2.25V8.666h7.666v7.666H8.666V14.666H7v1.667A1.661,1.661,0,0,0,8.655,18h7.678A1.661,1.661,0,0,0,18,16.345V8.666A1.661,1.661,0,0,0,16.344,7Z"/><path id="Path_3262" data-name="Path 3262" class="cls-1" d="M11.333,14.416l2.833-2.25-2.833-2.25v1.417H3.667V3.667h7.666V5.333H13V3.667A1.661,1.661,0,0,0,11.345,2H3.667A1.661,1.661,0,0,0,2,3.655v7.678A1.661,1.661,0,0,0,3.655,13h7.678Z"/></svg>
    <svg width="20px" height="20px" viewBox="0 0 20 20" id="sgf-project-detail"><path class="cls-2" d="M9,10H6.75L11,4.5V8h2.25L9,13.5Zm1-6.85a5.291,5.291,0,0,1,5.285,5.285c0,1.216-.717,3.851-5.285,8.3-4.568-4.448-5.285-7.083-5.285-8.3A5.291,5.291,0,0,1,10,3.15M10,1.5A6.935,6.935,0,0,0,3.065,8.435C3.065,11.14,5.319,14.722,10,19c4.681-4.276,6.935-7.86,6.935-10.565A6.935,6.935,0,0,0,10,1.5Z"/></svg>
    <svg width="24px" height="24px" viewBox="0 0 24 24" id="sgf-keyboard-arrow-left"><path d="M15.41 16.09l-4.58-4.59 4.58-4.59L14 5.5l-6 6 6 6z"/></svg>
    <svg width="24px" height="24px" viewBox="0 0 24 24" id="sgf-keyboard-arrow-right"><path d="M8.59 16.34l4.58-4.59-4.58-4.59L10 5.75l6 6-6 6z"/></svg>
    <svg width="24px" height="24px" viewBox="0 0 24 24" id="sgf-full-screen-exit"><path d="M5 16h3v3h2v-5H5v2zm3-8H5v2h5V5H8v3zm6 11h2v-3h3v-2h-5v5zm2-11V5h-2v5h5V8h-3z"/></svg>
    <svg width="24px" height="24px" viewBox="0 0 24 24" id="sgf-full-screen"><path d="M7 14H5v5h5v-2H7v-3zm-2-4h2V7h3V5H5v5zm12 7h-3v2h5v-5h-2v3zM14 5v2h3v3h2V5h-5z"/></svg>
    <svg width="24px" height="24px" viewBox="0 0 24 24" id="sgf-location-on-outline"><path d="M0 0h24v24H0V0z" fill="none"/><path d="M12 2C8.13 2 5 5.13 5 9c0 5.25 7 13 7 13s7-7.75 7-13c0-3.87-3.13-7-7-7zM7 9c0-2.76 2.24-5 5-5s5 2.24 5 5c0 2.88-2.88 7.19-5 9.88C9.92 16.21 7 11.85 7 9z"/><circle cx="12" cy="9" r="2.5"/></svg>
    <svg width="24px" height="24px" viewBox="0 0 24 24" id="sgf-inbox-outline"><path d="M0 0h24v24H0V0z" fill="none"/><path d="M19 3H5c-1.1 0-2 .9-2 2v14c0 1.1.89 2 2 2h14c1.1 0 2-.9 2-2V5c0-1.1-.9-2-2-2zm0 16H5v-3h3.56c.69 1.19 1.97 2 3.45 2s2.75-.81 3.45-2H19v3zm0-5h-4.99c0 1.1-.9 2-2 2s-2-.9-2-2H5V5h14v9z"/></svg>
    <svg width="36px" height="36px" viewBox="0 0 36 36" id="sgf-status-dot"><path class="b" d="M728,195a5,5,0,1,0,5,5A5,5,0,0,0,728,195Z" transform="translate(-710 -182)"/></svg>
    <svg width="20px" height="20px" viewBox="0 0 20 20" id="sgf-reload"><path class="b" d="M15.952,6.056a7,7,0,1,0,1.821,6.694H15.952a5.25,5.25,0,1,1-4.947-7A5.18,5.18,0,0,1,14.7,7.307l-2.819,2.818H18.01V4Z" transform="translate(-1.01 -1)"/></svg>
    <svg width="20px" height="20px" viewBox="0 0 20 20" id="sgf-archive"><path class="b" d="M18,4V7.6a1,1,0,0,1-1,1V17a1,1,0,0,1-1,1H4a1,1,0,0,1-1-1V8.6a1,1,0,0,1-1-1V4A1,1,0,0,1,3,3H17A1,1,0,0,1,18,4ZM3.6,7H16.4V4.6H3.6ZM15.4,8.6H4.6v7.8H15.4ZM12,12H8a1,1,0,0,1-1-1H7a1,1,0,0,1,1-1h4a1,1,0,0,1,1,1h0A1,1,0,0,1,12,12Z"/></svg>
  </defs>
</svg>
