<svg xmlns="http://www.w3.org/2000/svg" width="225" height="225" viewBox="0 0 225 225">
  <g id="Group_15474" data-name="Group 15474" transform="translate(-842 -999)">
    <rect id="Rectangle_32013" data-name="Rectangle 32013" width="225" height="225" transform="translate(842 999)" fill="none" opacity="0"/>
    <g id="Group_15473" data-name="Group 15473" transform="translate(278 542)">
      <rect id="Rectangle_31616" data-name="Rectangle 31616" width="168" height="168" transform="translate(592 486)" fill="none"/>
      <path id="Path_1" data-name="Path 1" d="M675.049,521.715,686.118,542.8a8.123,8.123,0,0,0,5.824,4.232l23.473,4.012a3.817,3.817,0,0,1,2.088,6.428l-16.632,17.044a8.123,8.123,0,0,0-2.225,6.846l3.438,23.564a3.818,3.818,0,0,1-5.468,3.972l-21.349-10.556a8.123,8.123,0,0,0-7.2,0L646.721,608.9a3.816,3.816,0,0,1-5.468-3.974l3.437-23.564a8.123,8.123,0,0,0-2.224-6.845l-16.632-17.045a3.817,3.817,0,0,1,2.088-6.428l23.473-4.012a8.122,8.122,0,0,0,5.823-4.23l11.07-21.085a3.817,3.817,0,0,1,6.76,0Z" transform="translate(5.458 5.612)" fill="#edeff1"/>
      <path id="Path_2" data-name="Path 2" d="M674.54,521.46l11.074,21.085a8.12,8.12,0,0,0,5.823,4.23l23.473,4.013A3.815,3.815,0,0,1,717,557.216L700.367,574.26a8.126,8.126,0,0,0-2.224,6.846l3.437,23.564a3.818,3.818,0,0,1-5.468,3.972l-21.349-10.555a8.123,8.123,0,0,0-7.2,0l-21.349,10.555a3.817,3.817,0,0,1-5.468-3.972l3.437-23.564a8.126,8.126,0,0,0-2.224-6.846l-16.632-17.044a3.816,3.816,0,0,1,2.088-6.427l23.473-4.013a8.12,8.12,0,0,0,5.823-4.23l11.074-21.085a3.818,3.818,0,0,1,6.753,0Z" transform="translate(5.374 5.571)" fill="none" stroke="#4b5b75" stroke-linecap="round" stroke-width="2"/>
      <g id="Group_15360" data-name="Group 15360" transform="translate(676.029 500.227)">
        <line id="Line_1" data-name="Line 1" y2="11.289" transform="translate(0)" fill="none" stroke="#4b5b75" stroke-linecap="round" stroke-width="2"/>
        <line id="Line_2" data-name="Line 2" y2="11.289" transform="translate(0 127.144)" fill="none" stroke="#4b5b75" stroke-linecap="round" stroke-width="2"/>
      </g>
      <g id="Group_15361" data-name="Group 15361" transform="translate(627.085 520.5)">
        <line id="Line_3" data-name="Line 3" x2="7.982" y2="7.982" fill="none" stroke="#4b5b75" stroke-linecap="round" stroke-width="2"/>
        <line id="Line_4" data-name="Line 4" x2="7.982" y2="7.982" transform="translate(89.905 89.905)" fill="none" stroke="#4b5b75" stroke-linecap="round" stroke-width="2"/>
      </g>
      <g id="Group_15362" data-name="Group 15362" transform="translate(606.812 569.443)">
        <line id="Line_5" data-name="Line 5" x2="11.289" fill="none" stroke="#4b5b75" stroke-linecap="round" stroke-width="2"/>
        <line id="Line_6" data-name="Line 6" x2="11.289" transform="translate(127.145)" fill="none" stroke="#4b5b75" stroke-linecap="round" stroke-width="2"/>
      </g>
      <g id="Group_15363" data-name="Group 15363" transform="translate(627.085 520.5)">
        <line id="Line_7" data-name="Line 7" y1="7.982" x2="7.982" transform="translate(0 89.905)" fill="none" stroke="#4b5b75" stroke-linecap="round" stroke-width="2"/>
        <line id="Line_8" data-name="Line 8" y1="7.982" x2="7.982" transform="translate(89.905)" fill="none" stroke="#4b5b75" stroke-linecap="round" stroke-width="2"/>
      </g>
      <g id="Group_15364" data-name="Group 15364" transform="translate(644.683 493.767)">
        <line id="Line_9" data-name="Line 9" x2="5.112" y2="12.342" fill="none" stroke="#4b5b75" stroke-linecap="round" stroke-width="2"/>
        <line id="Line_10" data-name="Line 10" x2="5.112" y2="12.342" transform="translate(57.58 139.01)" fill="none" stroke="#4b5b75" stroke-linecap="round" stroke-width="2"/>
      </g>
      <g id="Group_15365" data-name="Group 15365" transform="translate(600.353 538.097)">
        <line id="Line_11" data-name="Line 11" x2="12.342" y2="5.112" fill="none" stroke="#4b5b75" stroke-linecap="round" stroke-width="2"/>
        <line id="Line_12" data-name="Line 12" x2="12.342" y2="5.112" transform="translate(139.01 57.58)" fill="none" stroke="#4b5b75" stroke-linecap="round" stroke-width="2"/>
      </g>
      <g id="Group_15366" data-name="Group 15366" transform="translate(600.353 538.097)">
        <line id="Line_13" data-name="Line 13" y1="5.112" x2="12.342" transform="translate(0 57.58)" fill="none" stroke="#4b5b75" stroke-linecap="round" stroke-width="2"/>
        <line id="Line_14" data-name="Line 14" y1="5.112" x2="12.342" transform="translate(139.01)" fill="none" stroke="#4b5b75" stroke-linecap="round" stroke-width="2"/>
      </g>
      <g id="Group_15367" data-name="Group 15367" transform="translate(644.683 493.767)">
        <line id="Line_15" data-name="Line 15" y1="12.342" x2="5.112" transform="translate(0 139.01)" fill="none" stroke="#4b5b75" stroke-linecap="round" stroke-width="2"/>
        <line id="Line_16" data-name="Line 16" y1="12.342" x2="5.112" transform="translate(57.58)" fill="none" stroke="#4b5b75" stroke-linecap="round" stroke-width="2"/>
      </g>
    </g>
  </g>
</svg>
