<?xml version="1.0" encoding="UTF-8" standalone="no"?>
<svg
   xmlns:dc="http://purl.org/dc/elements/1.1/"
   xmlns:cc="http://creativecommons.org/ns#"
   xmlns:rdf="http://www.w3.org/1999/02/22-rdf-syntax-ns#"
   xmlns:svg="http://www.w3.org/2000/svg"
   xmlns="http://www.w3.org/2000/svg"
   xmlns:xlink="http://www.w3.org/1999/xlink"
   xmlns:sodipodi="http://sodipodi.sourceforge.net/DTD/sodipodi-0.dtd"
   xmlns:inkscape="http://www.inkscape.org/namespaces/inkscape"
   width="25.125"
   height="41.220001"
   id="svg2"
   version="1.1"
   inkscape:version="0.48.4 r9939"
   sodipodi:docname="marker.svg">
  <metadata
     id="metadata48">
    <rdf:RDF>
      <cc:Work
         rdf:about="">
        <dc:format>image/svg+xml</dc:format>
        <dc:type
           rdf:resource="http://purl.org/dc/dcmitype/StillImage" />
      </cc:Work>
    </rdf:RDF>
  </metadata>
  <sodipodi:namedview
     pagecolor="#ffffff"
     bordercolor="#666666"
     borderopacity="1"
     objecttolerance="10"
     gridtolerance="10"
     guidetolerance="10"
     inkscape:pageopacity="0"
     inkscape:pageshadow="2"
     inkscape:window-width="1920"
     inkscape:window-height="1056"
     id="namedview46"
     showgrid="false"
     borderlayer="false"
     fit-margin-top="0"
     fit-margin-left="0"
     fit-margin-right="0"
     fit-margin-bottom="0"
     inkscape:zoom="16"
     inkscape:cx="50.779701"
     inkscape:cy="12.880416"
     inkscape:window-x="0"
     inkscape:window-y="24"
     inkscape:window-maximized="1"
     inkscape:current-layer="svg2" />
  <defs
     id="defs4">
    <linearGradient
       id="b">
      <stop
         offset="0"
         stop-color="#2e6c97"
         id="stop7" />
      <stop
         offset="1"
         stop-color="#3883b7"
         id="stop9" />
    </linearGradient>
    <linearGradient
       id="a">
      <stop
         offset="0"
         stop-color="#126fc6"
         id="stop12" />
      <stop
         offset="1"
         stop-color="#4c9cd1"
         id="stop14" />
    </linearGradient>
    <linearGradient
       xlink:href="#a"
       x1="351.138"
       y1="551.58899"
       x2="351.138"
       y2="512.92798"
       gradientUnits="userSpaceOnUse"
       gradientTransform="translate(-2.715,0)"
       id="linearGradient16" />
    <linearGradient
       xlink:href="#a"
       x1="318.57101"
       y1="550.052"
       x2="318.57101"
       y2="512.422"
       gradientUnits="userSpaceOnUse"
       gradientTransform="translate(94.732,2.054)"
       id="linearGradient18" />
    <linearGradient
       xlink:href="#a"
       gradientUnits="userSpaceOnUse"
       gradientTransform="matrix(-1,0,0,1,731.268,2.054)"
       x1="318.57101"
       y1="550.052"
       x2="318.57101"
       y2="512.422"
       id="linearGradient20" />
    <linearGradient
       xlink:href="#a"
       gradientUnits="userSpaceOnUse"
       gradientTransform="translate(94.232,2.054)"
       x1="318.57101"
       y1="550.052"
       x2="318.57101"
       y2="512.422"
       id="linearGradient22" />
    <linearGradient
       xlink:href="#a"
       gradientUnits="userSpaceOnUse"
       gradientTransform="translate(-28.58,-0.437)"
       x1="445.30099"
       y1="541.28601"
       x2="445.30099"
       y2="503.72"
       id="linearGradient24" />
    <linearGradient
       xlink:href="#b"
       gradientUnits="userSpaceOnUse"
       gradientTransform="translate(63,-0.438)"
       x1="351.74799"
       y1="522.77399"
       x2="351.74799"
       y2="503.72101"
       id="linearGradient26" />
    <linearGradient
       xlink:href="#a"
       gradientUnits="userSpaceOnUse"
       gradientTransform="translate(-28.58,-0.437)"
       x1="445.30099"
       y1="541.28601"
       x2="445.30099"
       y2="503.72"
       id="linearGradient28" />
    <linearGradient
       xlink:href="#b"
       gradientUnits="userSpaceOnUse"
       gradientTransform="translate(63,-0.438)"
       x1="351.74799"
       y1="522.77399"
       x2="351.74799"
       y2="503.72101"
       id="linearGradient30" />
    <linearGradient
       xlink:href="#a"
       gradientUnits="userSpaceOnUse"
       gradientTransform="translate(-28.58,-0.437)"
       x1="445.30099"
       y1="541.28601"
       x2="445.30099"
       y2="503.72"
       id="linearGradient32" />
    <linearGradient
       xlink:href="#b"
       gradientUnits="userSpaceOnUse"
       gradientTransform="translate(63,-0.438)"
       x1="351.74799"
       y1="522.77399"
       x2="351.74799"
       y2="503.72101"
       id="linearGradient34" />
    <linearGradient
       xlink:href="#a"
       id="c"
       gradientUnits="userSpaceOnUse"
       gradientTransform="translate(-432.7835,-502.34825)"
       x1="445.30099"
       y1="541.28601"
       x2="445.30099"
       y2="503.72" />
    <linearGradient
       xlink:href="#b"
       id="d"
       gradientUnits="userSpaceOnUse"
       gradientTransform="translate(-341.2035,-502.34925)"
       x1="351.74799"
       y1="522.77399"
       x2="351.74799"
       y2="503.72101" />
    <linearGradient
       xlink:href="#a"
       gradientUnits="userSpaceOnUse"
       gradientTransform="translate(-28.846,-0.287)"
       x1="445.30099"
       y1="541.28601"
       x2="445.30099"
       y2="503.72"
       id="linearGradient38" />
    <linearGradient
       xlink:href="#b"
       gradientUnits="userSpaceOnUse"
       gradientTransform="translate(62.734,-0.288)"
       x1="351.74799"
       y1="522.77399"
       x2="351.74799"
       y2="503.72101"
       id="linearGradient40" />
  </defs>
  <path
     d="m 12.6065,1.5507488 c -6.573,0 -12.044,5.691 -12.044,11.8660002 0,2.778 1.564,6.308 2.694,8.746 l 9.306,17.872 9.262,-17.872 c 1.13,-2.438 2.738,-5.791 2.738,-8.746 0,-6.1750002 -5.383,-11.8660002 -11.956,-11.8660002 z m 0,7.155 c 2.584,0.017 4.679,2.1220002 4.679,4.7100002 0,2.588 -2.095,4.663 -4.679,4.679 -2.584,-0.017 -4.679,-2.09 -4.679,-4.679 0,-2.588 2.095,-4.6930002 4.679,-4.7100002 z"
     id="path42"
     inkscape:connector-curvature="0"
     style="fill:url(#c);stroke:url(#d);stroke-width:1.10000002;stroke-linecap:round" />
  <path
     d="m 12.5935,2.6577488 c -5.944,0 -10.938,5.219 -10.938,10.7500002 0,2.359 1.443,5.832 2.563,8.25 l 0.031,0.031 8.313,15.969 8.25,-15.969 0.031,-0.031 c 1.135,-2.448 2.625,-5.706 2.625,-8.25 0,-5.5380002 -4.931,-10.7500002 -10.875,-10.7500002 z m 0,4.969 c 3.168,0.021 5.781,2.6010002 5.781,5.7810002 0,3.18 -2.613,5.761 -5.781,5.781 -3.168,-0.02 -5.75,-2.61 -5.75,-5.781 0,-3.172 2.582,-5.7610002 5.75,-5.7810002 z"
     id="path44"
     inkscape:connector-curvature="0"
     style="fill:none;stroke:#ffffff;stroke-width:1.10000002;stroke-linecap:round;stroke-opacity:0.122" />
  <path
     style="fill:#ffffff;fill-opacity:1"
     d="M 11.908994,17.450847 C 10.981249,17.254507 10.173577,16.800113 9.5733091,16.136795 8.2505211,14.675067 8.1810593,12.408168 9.4120574,10.874315 10.203446,9.8882262 11.348963,9.3186301 12.556854,9.3105991 c 0.696095,-0.00463 1.154909,0.1034168 1.842312,0.4338424 0.479156,0.2303243 0.676483,0.3713845 1.064296,0.7608205 0.807809,0.811187 1.207979,1.760647 1.21566,2.884323 0.0049,0.719063 -0.08642,1.123438 -0.402338,1.78125 -0.504457,1.0504 -1.344407,1.774688 -2.497083,2.153232 -0.464218,0.152452 -1.437669,0.218423 -1.870707,0.12678 z"
     id="path3003"
     inkscape:connector-curvature="0" />
</svg>
