<svg id="app-sdat" xmlns="http://www.w3.org/2000/svg" xmlns:xlink="http://www.w3.org/1999/xlink" width="48" height="48" viewBox="0 0 48 48">
  <defs>
    <radialGradient id="radial-gradient" cx="0.5" cy="0.5" r="0.5" gradientUnits="objectBoundingBox">
      <stop offset="0" stop-color="#314862"/>
      <stop offset="0.719" stop-color="#6e7e90"/>
      <stop offset="1" stop-color="#919dab"/>
    </radialGradient>
    <linearGradient id="linear-gradient" y1="0.5" x2="1" y2="0.5" gradientUnits="objectBoundingBox">
      <stop offset="0" stop-color="#b3bac5"/>
      <stop offset="1" stop-color="#919dab"/>
    </linearGradient>
  </defs>
  <g id="Group_15412" data-name="Group 15412" transform="translate(0 0)">
    <rect id="Rectangle_31819" data-name="Rectangle 31819" width="48" height="48" transform="translate(0 0)" fill="none"/>
    <g id="Group_18809" data-name="Group 18809" transform="translate(-739 -148)">
      <path id="Path_7883" data-name="Path 7883" d="M44.961,38.1c-4.767,0-6.438-3.626-7.911-6.824-1.448-3.144-2.469-5.52-5.081-5.52s-3.633,2.376-5.081,5.52c-1.474,3.2-3.144,6.824-7.911,6.824.034.013-.019-2.46,0-2.492,3.495,0,4.7-3.1,6.105-6.143,1.345-2.92,2.869-6.3,6.887-6.3s5.542,3.378,6.887,6.3c1.4,3.041,2.61,6.143,6.105,6.143C44.961,35.609,44.988,38.116,44.961,38.1ZM32.966,16.125H30.908V17.96h2.058Zm0,3.365H30.908v1.835h2.058Zm0,8.706H30.908v1.835h2.058Zm0,3.365H30.908V33.4h2.058Zm0,3.365H30.908V36.76h2.058Zm0,3.365H30.908v1.835h2.058Z" transform="translate(728.027 143.875)" fill="#fff"/>
      <path id="Path_7888" data-name="Path 7888" d="M22,0A22,22,0,1,1,0,22,22,22,0,0,1,22,0Z" transform="translate(741 150)" fill="url(#radial-gradient)"/>
      <g id="Group_18770" data-name="Group 18770" transform="translate(741 156.285)">
        <g id="Mask_Group_18545" data-name="Mask Group 18545" transform="translate(0 0)">
          <path id="Intersection_1" data-name="Intersection 1" d="M6.6,31.429A22,22,0,0,1,6.6,0H37.4a22,22,0,0,1,0,31.429Z" transform="translate(0 0)" fill="url(#linear-gradient)"/>
        </g>
        <path id="Path_7883-2" data-name="Path 7883" d="M44.961,38.1c-4.767,0-6.438-3.626-7.911-6.824-1.448-3.144-2.469-5.52-5.081-5.52s-3.633,2.376-5.081,5.52c-1.474,3.2-3.144,6.824-7.911,6.824.034.013-.019-2.46,0-2.492,3.495,0,4.7-3.1,6.105-6.143,1.345-2.92,2.869-6.3,6.887-6.3s5.542,3.378,6.887,6.3c1.4,3.041,2.61,6.143,6.105,6.143C44.961,35.609,44.988,38.116,44.961,38.1ZM32.966,16.125H30.908V17.96h2.058Zm0,3.365H30.908v1.835h2.058Zm0,8.706H30.908v1.835h2.058Zm0,3.365H30.908V33.4h2.058Zm0,3.365H30.908V36.76h2.058Zm0,3.365H30.908v1.835h2.058Z" transform="translate(-9.973 -12.411)" fill="#fff"/>
      </g>
    </g>
  </g>
</svg>
