<svg id="app-monitor" xmlns="http://www.w3.org/2000/svg" xmlns:xlink="http://www.w3.org/1999/xlink" width="48" height="48" viewBox="0 0 48 48">
  <defs>
    <clipPath id="clip-path">
      <path id="Subtraction_1" data-name="Subtraction 1" d="M319.916,368.142h-34v-48h48v34a10.1,10.1,0,0,0-3.458-2.911,9.89,9.89,0,0,0-4.542-1.089,10.011,10.011,0,0,0-10,10,9.91,9.91,0,0,0,1.089,4.543A10.091,10.091,0,0,0,319.916,368.142Z" transform="translate(-285.916 -320.142)" fill="#030504"/>
    </clipPath>
    <radialGradient id="radial-gradient" cx="0.5" cy="0.5" r="0.5" gradientUnits="objectBoundingBox">
      <stop offset="0" stop-color="#48af8c"/>
      <stop offset="0.719" stop-color="#48af8c"/>
      <stop offset="1" stop-color="#5ac3a3"/>
    </radialGradient>
    <linearGradient id="linear-gradient" y1="0.5" x2="1" y2="0.5" gradientUnits="objectBoundingBox">
      <stop offset="0" stop-color="#7eddab"/>
      <stop offset="0.754" stop-color="#5ac3a3"/>
      <stop offset="1" stop-color="#5ac3a3"/>
    </linearGradient>
  </defs>
  <g id="Group_15409" data-name="Group 15409" transform="translate(0)">
    <rect id="Rectangle_28631" data-name="Rectangle 28631" width="48" height="48" fill="none"/>
    <g id="Mask_Group_18550" data-name="Mask Group 18550" clip-path="url(#clip-path)">
      <g id="Group_18806" data-name="Group 18806" transform="translate(2 2)">
        <rect id="Rectangle_38373" data-name="Rectangle 38373" width="44" height="44" fill="#adaeaf" opacity="0"/>
        <circle id="Ellipse_320" data-name="Ellipse 320" cx="22" cy="22" r="22" fill="url(#radial-gradient)"/>
        <g id="Group_18467" data-name="Group 18467" transform="translate(0 6.285)">
          <g id="Mask_Group_18545" data-name="Mask Group 18545" transform="translate(0 0)">
            <path id="Intersection_1" data-name="Intersection 1" d="M6.6,31.428A22,22,0,0,1,6.6,0H37.4a22,22,0,0,1,0,31.428Z" transform="translate(0)" fill="url(#linear-gradient)"/>
          </g>
          <g id="Group_16834" data-name="Group 16834" transform="translate(12.373 5.723)">
            <path id="Path_6180" data-name="Path 6180" d="M20.31,25.749a4.1,4.1,0,0,1-4.1,4.1H8.915A5.925,5.925,0,0,1,8.9,18h.018a5.919,5.919,0,0,1,5.345,3.384,4.806,4.806,0,0,0-1.908,1.541l.547.4a4.092,4.092,0,0,1,3.31-1.681h0a4.1,4.1,0,0,1,4.1,4.1Z" transform="translate(-2.98 -11.847)" fill="#fff"/>
            <path id="Path_6181" data-name="Path 6181" d="M26.813,11.578A4.535,4.535,0,0,0,25.8,9.126l2.11-2.11-.626-.626L25.172,8.5A4.539,4.539,0,0,0,22.72,7.485V4.5h-.885V7.485A4.539,4.539,0,0,0,19.382,8.5l-2.11-2.11-.626.626,2.11,2.11A4.552,4.552,0,0,0,18.1,10.2a6.543,6.543,0,0,1,4.245,3.6,4.724,4.724,0,0,1,3.84.553,4.516,4.516,0,0,0,.629-1.89H29.8v-.887Z" transform="translate(-10.417 -4.5)" fill="#fff"/>
          </g>
        </g>
      </g>
    </g>
  </g>
  <path id="Path_10225" data-name="Path 10225" d="M10,2a8,8,0,1,0,8,8A8,8,0,0,0,10,2Zm1,12H9V9h2Zm0-6.5H9V6h2Z" transform="translate(30 30)" fill="#3f84f2"/>
</svg>
