<svg xmlns="http://www.w3.org/2000/svg" width="92" height="92" viewBox="0 0 92 92">
  <defs>
    <style>
      .a {
        fill: #fcb813;
      }

      .b {
        fill: #cfd4da;
      }
    </style>
  </defs>
  <title>icn_config4</title>
  <g>
    <path class="a" d="M63,59.18l7.5,1.25V76H63ZM72.5,76H79a1,1,0,0,0,1-1V62.013l-7.5-1.249Zm6.132-30.4L72.5,43.554V58.736l7.5,1.25V47.5A2,2,0,0,0,78.632,45.6ZM70.5,42.887l-7.5-2.5V57.153l7.5,1.25ZM45,76h6.5V57.264L44,56.014V75A1,1,0,0,0,45,76Zm6.5-39.446-6.184-2.061A1,1,0,0,0,44,35.442V53.987l7.5,1.249ZM53.5,76H61V58.847L53.5,57.6ZM61,39.721l-7.5-2.5V55.57L61,56.82Z"/>
    <path class="b" d="M8,56H38v2H8ZM28,26H18v2H28ZM8,46H38V44H8Zm0-4H38V40H8ZM8,54H38V52H8ZM8,70H38V68H8Zm0-4H38V64H8ZM92,78v2H1a1,1,0,0,1-1-1V31a1,1,0,0,1,1-1H40.754A20.938,20.938,0,0,1,47.4,31.078L79.9,41.912A5.992,5.992,0,0,1,84,47.6V78ZM82,47.6a4,4,0,0,0-2.735-3.8l-32.5-10.834A18.973,18.973,0,0,0,40.754,32H2V78H82Z"/>
  </g>
</svg>
