<svg xmlns="http://www.w3.org/2000/svg" width="92" height="92" viewBox="0 0 92 92">
  <defs>
    <style>
      .a {
        fill: #cfd4da;
      }

      .b {
        fill: #fcb813;
      }
    </style>
  </defs>
  <title>icn_config5</title>
  <g>
    <path class="a" d="M92,78v2H0V78H6V47.309l2,2.446V78H32V72h2v6H56V72h2v6H78V72h2v6Z"/>
    <path class="b" d="M30,40,41.455,54H29.193L17.739,40ZM54.546,70,43.092,56H30.83L42.284,70Zm-26.3-14H15.916L26.2,68.537A4,4,0,0,0,29.289,70H39.7ZM15.155,40H4.907a1,1,0,0,0-.773,1.634L14.274,54H26.609Zm43.73,14H71.152L60.9,41.467A4.117,4.117,0,0,0,57.6,40H47.431ZM82.907,68.367,72.789,56H60.522L71.976,70H82.133A1,1,0,0,0,82.907,68.367ZM32.585,40,44.039,54H56.3L44.847,40ZM69.392,70,57.938,56H45.676L57.13,70Z"/>
  </g>
</svg>
