<svg id="c5" xmlns="http://www.w3.org/2000/svg" viewBox="0 0 92 92"><defs><style>.cls-1{fill:#cfd4da;}.cls-2{fill:#fcb813;}</style></defs><title>icn_config6_1</title><path class="cls-1" d="M8.82,77.94a12.39,12.39,0,0,1,6.11,0l4.78,1.22a14.5,14.5,0,0,0,7.05,0l4.77-1.22a12.39,12.39,0,0,1,6.11,0l4.78,1.22a14.5,14.5,0,0,0,7,0l4.77-1.22a12.39,12.39,0,0,1,6.11,0l4.78,1.22a14.46,14.46,0,0,0,7,0L77,77.94a12.39,12.39,0,0,1,6.11,0L91.13,80l.46-1.83L83.53,76.1a14.34,14.34,0,0,0-7,0l-4.78,1.22a12.63,12.63,0,0,1-6.11,0L60.82,76.1a14.34,14.34,0,0,0-7,0L49,77.33a12.63,12.63,0,0,1-6.11,0L38.11,76.1a14.34,14.34,0,0,0-7,0l-4.78,1.22a12.63,12.63,0,0,1-6.11,0L15.4,76.1a14.34,14.34,0,0,0-7,0L.29,78.17.76,80Zm7.41-15.21,1.89,2.05v8.68H16.23Z"/><polygon class="cls-2" points="36.39 53.27 54.41 73.46 42.27 73.46 24.24 53.27 36.39 53.27"/><path class="cls-2" d="M21.77,53.27H11.61a1,1,0,0,0-1,1,1,1,0,0,0,.19.55L27.56,73.46H39.7Z"/><path class="cls-2" d="M71.59,73.46H83.74L66.9,54.75a4,4,0,0,0-3.26-1.48H53.57Z"/><polygon class="cls-2" points="38.95 53.27 56.88 73.46 69.03 73.46 51 53.27 38.95 53.27"/></svg>