<svg xmlns="http://www.w3.org/2000/svg" width="92" height="92" viewBox="0 0 92 92">
  <defs>
    <style>
      .a {
        fill: #cfd4da;
      }

      .b {
        fill: #fcb813;
      }
    </style>
  </defs>
  <title>icn_config1</title>
  <g>
    <path class="a" d="M92,78v2H2a2,2,0,0,1-2-2V55.448a6,6,0,0,1,1.391-3.841L19.1,30.355l1.291,1.574L2.927,52.887A4,4,0,0,0,2,55.448V78H40V56h2V78H82V56h2V78ZM74,60H50v2H74Zm0,4H50v2H74Zm0,4H50v2H74ZM28,58H14v2H28Zm0,4H14v2H28Zm0,4H14v2H28Zm0,4H14v2H28Zm0,4H14v2H28Z"/>
    <path class="b" d="M47.876,28,57.7,40H45.433L35.615,28Zm12.4,12H73.545L64.927,29.467A4.115,4.115,0,0,0,61.632,28H50.461Zm8.87,14L59.331,42H47.069l9.818,12Zm14.515-1.633L75.182,42H61.915l9.818,12H82.89A1,1,0,0,0,83.664,52.367ZM44.485,42H31.155L39.8,52.537A4,4,0,0,0,42.892,54H54.3ZM33.03,28H21.783a1,1,0,0,0-.773,1.634L29.513,40H42.848Z"/>
  </g>
</svg>
