<svg xmlns="http://www.w3.org/2000/svg" width="92" height="92" viewBox="0 0 92 92">
  <defs>
    <style>
      .a {
        fill: #cfd4da;
      }

      .b {
        fill: #fcb813;
      }
    </style>
  </defs>
  <title>icn_config3</title>
  <g>
    <path class="a" d="M24,62.5H10v-2H24Zm50,6H42v2H74Zm0-8H42v2H74Zm0,4H42v2H74Zm-50,0H10v2H24Zm60,14v-22H82v22H34v-22H32v22H2V41.25l-2-1V78.5a2,2,0,0,0,2,2H92v-2Zm-60-10H10v2H24Z"/>
    <g>
      <polygon class="b" points="28.201 43.5 38.399 43.5 22.199 34.5 12.001 34.5 28.201 43.5"/>
      <polygon class="b" points="42.001 43.5 52.199 43.5 35.999 34.5 25.801 34.5 42.001 43.5"/>
      <path class="b" d="M55.8,43.5H66.5L52.564,35.758A10,10,0,0,0,47.708,34.5H39.6Z"/>
      <path class="b" d="M14,43.5H24.6l-16.2-9H.888A.8.8,0,0,0,.5,36Z"/>
      <path class="b" d="M69.656,45.254h-10.7L75.6,54.5h7.61A.8.8,0,0,0,83.6,53Z"/>
      <polygon class="b" points="55.356 45.254 45.158 45.254 61.801 54.5 71.999 54.5 55.356 45.254"/>
      <polygon class="b" points="41.556 45.254 31.358 45.254 48.001 54.5 58.198 54.5 41.556 45.254"/>
      <path class="b" d="M27.756,45.254h-10.6l14.378,7.988A10,10,0,0,0,36.392,54.5H44.4Z"/>
    </g>
  </g>
</svg>
