<svg xmlns="http://www.w3.org/2000/svg" width="92" height="92" viewBox="0 0 92 92">
  <defs>
    <style>
      .a {
        fill: #fcb813;
      }

      .b {
        fill: #cfd4da;
      }
    </style>
  </defs>
  <title>icn_config2</title>
  <g>
    <path class="a" d="M45.735,50h-11a4,4,0,0,1-3.1-1.467l-10.555-12.9A1,1,0,0,1,21.861,34H32.645Zm2.387-16H35.229L48.32,50H61.213ZM61.7,34h-11L63.8,50H74.581a1,1,0,0,0,.774-1.633L64.8,35.467A4,4,0,0,0,61.7,34ZM25.5,44.3V50h4.663Zm-5-4.3H14.818L20.5,46.944Zm0,8.7L13.383,40h-5.9a.6.6,0,0,0-.465.98L13.5,48.9A3,3,0,0,0,15.823,50H20.5Z"/>
    <path class="b" d="M74,62H42V60H74Zm0,6H42v2H74Zm0-4H42v2H74ZM24,64H10v2H24ZM92,78v2H2a2,2,0,0,1-2-2V54a2,2,0,0,1,2-2H8V45.24l2,2.446V52H22V40.024l2,2.445V52H82a2,2,0,0,1,2,2V78ZM82,54H2V78H32V56h2V78H82ZM24,60H10v2H24Zm0,8H10v2H24Z"/>
  </g>
</svg>
