<?xml version="1.0" encoding="utf-8"?>
<!-- Generator: Adobe Illustrator 23.0.2, SVG Export Plug-In . SVG Version: 6.00 Build 0)  -->
<svg version="1.1" xmlns="http://www.w3.org/2000/svg" xmlns:xlink="http://www.w3.org/1999/xlink" x="0px" y="0px" width="92px"
	 height="92px" viewBox="0 0 92 92" style="enable-background:new 0 0 92 92;" xml:space="preserve">
<style type="text/css">
	.st0{opacity:0.1;fill:#CFD4DA;}
	.st1{opacity:0.2;}
	.st2{fill:#CFD4DA;}
	.st3{fill:#FCB813;}
	.st4{fill:#FFFFFF;}
	.st5{fill:#010101;}
	.st6{fill:none;}
	.st7{fill:#939DAC;}
	.st8{opacity:0.3;fill:#939DAC;}
	.st9{fill:none;stroke:#FFFFFF;stroke-width:1.5002;stroke-linecap:square;stroke-miterlimit:10;}
	.st10{opacity:0.35;}
	.st11{fill:#DFE2E7;}
	.st12{fill:#4B5B75;}
</style>
<g id="c5">
	<path class="st3" d="M41.812,39.594v-3.458c0-0.739,0.8-1.201,1.441-0.832l20.314,11.732c0.61,0.352,1.07,0.916,1.292,1.584
		l1.829,5.486L41.812,39.594z M67.378,56.176L41.812,41.262v6.413l28.009,15.832L67.378,56.176z M70.502,65.546L41.812,49.33v6.242
		c0,1.054,0.576,2.025,1.502,2.53l28.054,15.302c0.766,0.418,1.647-0.319,1.371-1.147L70.502,65.546z M10.19,39.584l1.468-4.403
		c0.189-0.568,0.846-0.826,1.371-0.54l21.589,11.776c0.926,0.505,1.502,1.475,1.502,2.529v4.781L10.19,39.584z M36.12,55.369
		L9.727,40.973l-2.17,6.509L36.12,63.061V55.369z M7.095,48.871l-1.911,5.732c-0.441,1.323,0.129,2.772,1.354,3.44l28.162,15.361
		c0.64,0.349,1.42-0.114,1.42-0.843v-7.86L7.095,48.871z"/>
	<path class="st2" d="M92,78v2H0v-2h19V66.5l2,1.05V78h34V66.5l2,1.05V78H92z M29.522,40.242l5.051,2.797l-0.103-5.773l-1.736,1.044
		c-1.173-1.95-2.838-3.562-4.815-4.66c-0.005-0.003-0.01-0.005-0.015-0.008c-1.985-1.099-4.239-1.658-6.52-1.617L21.348,30l0,0
		L16.4,32.976l5.051,2.797l-0.031-1.746c1.93-0.035,3.837,0.437,5.515,1.366c0.004,0.002,0.008,0.004,0.012,0.007
		c1.671,0.929,3.079,2.291,4.072,3.943L29.522,40.242z M58.122,40.242l5.051,2.797l-0.103-5.773l-1.736,1.044
		c-1.173-1.95-2.838-3.562-4.815-4.66c-0.005-0.003-0.01-0.005-0.015-0.008c-1.985-1.099-4.239-1.658-6.52-1.617L49.948,30l0,0
		L45,32.976l5.051,2.797l-0.031-1.746c1.93-0.035,3.837,0.437,5.515,1.366c0.004,0.002,0.008,0.004,0.012,0.007
		c1.671,0.929,3.079,2.291,4.072,3.943L58.122,40.242z"/>
</g>
<g id="Layer_1">
</g>
</svg>
